<svg width="900" height="967" viewBox="0 0 900 967" fill="none" xmlns="http://www.w3.org/2000/svg">
<path d="M835.62 762.741C892.333 821.51 935.667 890.678 965.623 970.244H652.56C643.649 956.96 633.979 944.469 623.55 932.771C551.926 853.05 460.994 813.189 350.755 813.189C240.516 813.189 150.207 852.738 79.8286 931.836C21.8427 996.943 -12.4651 1088.43 -23.0947 1206.29H-310C-297.41 1021.52 -238.157 873.981 -132.242 763.675C-12.0373 639.111 148.65 576.829 349.821 576.829C553.483 576.829 715.416 638.799 835.62 762.741Z" fill="#151F14"/>
<path d="M-261.882 26.0487C-231.927 105.614 -188.593 174.782 -131.88 233.552C-11.6757 357.493 150.258 419.463 353.92 419.463C555.09 419.463 715.778 357.181 835.982 232.617C941.898 122.312 1001.15 -25.2275 1013.74 -210H726.835C716.206 -92.1364 681.898 -0.651093 623.912 64.4559C553.534 143.554 463.224 183.103 352.985 183.103C242.746 183.103 151.815 143.243 80.1903 63.5217C69.7612 51.823 60.0913 39.332 51.1808 26.0487H-261.882Z" fill="#151F14"/>
<path d="M835.62 762.741C892.333 821.51 935.667 890.678 965.623 970.244H652.56C643.649 956.96 633.979 944.469 623.55 932.771C551.926 853.05 460.994 813.189 350.755 813.189C240.516 813.189 150.207 852.738 79.8286 931.836C21.8427 996.943 -12.4651 1088.43 -23.0947 1206.29H-310C-297.41 1021.52 -238.157 873.981 -132.242 763.675C-12.0373 639.111 148.65 576.829 349.821 576.829C553.483 576.829 715.416 638.799 835.62 762.741Z" stroke="#151F14" stroke-width="78.6829" stroke-linejoin="round"/>
<path d="M-261.882 26.0487C-231.927 105.614 -188.593 174.782 -131.88 233.552C-11.6757 357.493 150.258 419.463 353.92 419.463C555.09 419.463 715.778 357.181 835.982 232.617C941.898 122.312 1001.15 -25.2275 1013.74 -210H726.835C716.206 -92.1364 681.898 -0.651093 623.912 64.4559C553.534 143.554 463.224 183.103 352.985 183.103C242.746 183.103 151.815 143.243 80.1903 63.5217C69.7612 51.823 60.0913 39.332 51.1808 26.0487H-261.882Z" stroke="#151F14" stroke-width="78.6829" stroke-linejoin="round"/>
</svg>
