<svg width="1512" height="608" viewBox="0 0 1512 608" fill="none" xmlns="http://www.w3.org/2000/svg">
<rect width="1512" height="300" transform="translate(0 190)" fill="white"/>
<path d="M0 219.357C0 198.957 20.3997 184.663 39.7925 190.994C754.265 424.233 855.861 451.515 1474.19 296.067C1493.17 291.295 1512 305.522 1512 325.092V451.564C1512 463.838 1504.62 474.809 1493.09 479.025C1409.58 509.565 1061.66 626.716 694 604.5C428.154 588.436 84.6544 378.731 13.3205 333.464C4.81498 328.067 0 318.829 0 308.756V219.357Z" fill="#93E67F"/>
<path d="M-4 259C448 475.5 855.5 558.21 1512 381.782V536.5C1512 536.5 1048.5 608 721.5 588C413.888 569.186 -4 499.5 -4 499.5V259Z" fill="#66DB4A"/>
</svg>
