<svg width="1512" height="418" viewBox="0 0 1512 418" fill="none" xmlns="http://www.w3.org/2000/svg">
<rect width="1512" height="300" fill="#163300"/>
<path d="M0 29.3569C0 8.95688 20.3997 -5.33675 39.7925 0.994006C754.265 234.233 855.861 261.515 1474.19 106.067C1493.17 101.295 1512 115.522 1512 135.092V261.564C1512 273.838 1504.62 284.809 1493.09 289.025C1409.58 319.565 1061.66 436.716 694 414.5C428.154 398.436 84.6544 188.731 13.3205 143.464C4.81498 138.067 0 128.829 0 118.756V29.3569Z" fill="#93E67F"/>
<path d="M-4 69C448 285.5 855.5 368.21 1512 191.782V346.5C1512 346.5 1048.5 418 721.5 398C413.888 379.186 -4 309.5 -4 309.5V69Z" fill="#66DB4A"/>
</svg>
