<svg width="1516" height="608" viewBox="0 0 1516 608" fill="none" xmlns="http://www.w3.org/2000/svg">
<path d="M4 219.357C4 198.957 24.3997 184.663 43.7925 190.994C758.265 424.233 859.861 451.515 1478.19 296.067C1497.17 291.295 1516 305.522 1516 325.092V451.564C1516 463.838 1508.62 474.809 1497.09 479.025C1413.58 509.565 1065.66 626.716 698 604.5C432.154 588.436 88.6544 378.731 17.3205 333.464C8.81498 328.067 4 318.829 4 308.756V219.357Z" fill="#93E67F"/>
<path d="M0 259C452 475.5 859.5 558.21 1516 381.782V536.5C1516 536.5 1052.5 608 725.5 588C417.888 569.186 0 499.5 0 499.5V259Z" fill="#66DB4A"/>
</svg>
