<svg width="116" height="21" viewBox="0 0 116 21" fill="none" xmlns="http://www.w3.org/2000/svg">
<path d="M0.545818 20.1937V0.54582H15.5026V3.8696H4.51291V8.74332H15.5026V12.0887L4.51291 12.0537V16.8833H15.5026V20.1937H0.545818Z" fill="white"/>
<path d="M17.6725 20.1936V0.545818H21.5324L29.5738 13.6667V0.545818H33.2594V20.1936H29.2789L21.3582 7.38101V20.1936H17.6725Z" fill="white"/>
<path d="M42.4654 20.1936L35.4426 0.545818H39.7447L44.717 15.0874L49.5284 0.545818H53.7367L46.7005 20.1936H42.4654Z" fill="white"/>
<path d="M55.9198 10.4864C55.9198 8.55097 56.2093 6.92661 56.7882 5.6133C57.2202 4.6456 57.8077 3.77726 58.5508 3.00828C59.3025 2.2393 60.1233 1.66904 61.0132 1.29752C62.1969 0.796384 63.5621 0.545818 65.1087 0.545818C67.9081 0.545818 70.1459 1.41416 71.8221 3.15084C73.507 4.88752 74.3494 7.30246 74.3494 10.3957C74.3494 13.4629 73.5156 15.8649 71.848 17.6016C70.1805 19.3296 67.9513 20.1936 65.1605 20.1936C62.3352 20.1936 60.0887 19.3339 58.4212 17.6145C56.7536 15.8865 55.9198 13.5104 55.9198 10.4864ZM59.8727 10.3568C59.8727 12.5082 60.3695 14.1412 61.3632 15.2558C62.3568 16.3617 63.6182 16.9147 65.1476 16.9147C66.6769 16.9147 67.9297 16.366 68.906 15.2687C69.891 14.1628 70.3835 12.5082 70.3835 10.3049C70.3835 8.1276 69.904 6.50324 68.9449 5.43185C67.9945 4.36047 66.7287 3.82478 65.1476 3.82478C63.5664 3.82478 62.292 4.36911 61.3243 5.45778C60.3566 6.5378 59.8727 8.1708 59.8727 10.3568Z" fill="white"/>
<path d="M83.7295 20.1937V11.9244L76.5325 0.54582H81.1831L85.8069 8.31918L90.3369 0.54582H94.9071L87.6832 11.9512V20.1937H83.7295Z" fill="white"/>
<path d="M0.545818 20.1937V0.54582H15.5026V3.8696H4.51291V8.74332H15.5026V12.0887L4.51291 12.0537V16.8833H15.5026V20.1937H0.545818Z" stroke="white" stroke-width="1.08292" stroke-linejoin="round"/>
<path d="M17.6725 20.1936V0.545818H21.5324L29.5738 13.6667V0.545818H33.2594V20.1936H29.2789L21.3582 7.38101V20.1936H17.6725Z" stroke="white" stroke-width="1.08292" stroke-linejoin="round"/>
<path d="M42.4654 20.1936L35.4426 0.545818H39.7447L44.717 15.0874L49.5284 0.545818H53.7367L46.7005 20.1936H42.4654Z" stroke="white" stroke-width="1.08292" stroke-linejoin="round"/>
<path d="M55.9198 10.4864C55.9198 8.55097 56.2093 6.92661 56.7882 5.6133C57.2202 4.6456 57.8077 3.77726 58.5508 3.00828C59.3025 2.2393 60.1233 1.66904 61.0132 1.29752C62.1969 0.796384 63.5621 0.545818 65.1087 0.545818C67.9081 0.545818 70.1459 1.41416 71.8221 3.15084C73.507 4.88752 74.3494 7.30246 74.3494 10.3957C74.3494 13.4629 73.5156 15.8649 71.848 17.6016C70.1805 19.3296 67.9513 20.1936 65.1605 20.1936C62.3352 20.1936 60.0887 19.3339 58.4212 17.6145C56.7536 15.8865 55.9198 13.5104 55.9198 10.4864ZM59.8727 10.3568C59.8727 12.5082 60.3695 14.1412 61.3632 15.2558C62.3568 16.3617 63.6182 16.9147 65.1476 16.9147C66.6769 16.9147 67.9297 16.366 68.906 15.2687C69.891 14.1628 70.3835 12.5082 70.3835 10.3049C70.3835 8.1276 69.904 6.50324 68.9449 5.43185C67.9945 4.36047 66.7287 3.82478 65.1476 3.82478C63.5664 3.82478 62.292 4.36911 61.3243 5.45778C60.3566 6.5378 59.8727 8.1708 59.8727 10.3568Z" stroke="white" stroke-width="1.08292" stroke-linejoin="round"/>
<path d="M83.7295 20.1937V11.9244L76.5325 0.54582H81.1831L85.8069 8.31918L90.3369 0.54582H94.9071L87.6832 11.9512V20.1937H83.7295Z" stroke="white" stroke-width="1.08292" stroke-linejoin="round"/>
<path d="M112.983 14.0404C113.77 14.8557 114.371 15.8152 114.787 16.919H110.444C110.32 16.7347 110.186 16.5615 110.041 16.3992C109.048 15.2932 107.786 14.7402 106.257 14.7402C104.727 14.7402 103.475 15.2889 102.498 16.3862C101.694 17.2894 101.218 18.5586 101.07 20.1937H97.0903C97.2649 17.6304 98.0869 15.5836 99.5563 14.0533C101.224 12.3253 103.453 11.4613 106.244 11.4613C109.069 11.4613 111.316 12.321 112.983 14.0404Z" fill="url(#paint0_linear_0_6)"/>
<path d="M97.7578 3.82046C98.1734 4.92425 98.7745 5.88379 99.5613 6.69909C101.229 8.41849 103.475 9.27819 106.301 9.27819C109.091 9.27819 111.321 8.41417 112.988 6.68613C114.458 5.15589 115.28 3.10912 115.454 0.545818H111.474C111.327 2.18091 110.851 3.45006 110.046 4.35327C109.07 5.45058 107.817 5.99923 106.288 5.99923C104.758 5.99923 103.497 5.44626 102.503 4.34031C102.359 4.17802 102.224 4.00473 102.101 3.82046H97.7578Z" fill="url(#paint1_linear_0_6)"/>
<path d="M112.983 14.0404C113.77 14.8557 114.371 15.8152 114.787 16.919H110.444C110.32 16.7347 110.186 16.5615 110.041 16.3992C109.048 15.2932 107.786 14.7402 106.257 14.7402C104.727 14.7402 103.475 15.2889 102.498 16.3862C101.694 17.2894 101.218 18.5586 101.07 20.1937H97.0903C97.2649 17.6304 98.0869 15.5836 99.5563 14.0533C101.224 12.3253 103.453 11.4613 106.244 11.4613C109.069 11.4613 111.316 12.321 112.983 14.0404Z" stroke="url(#paint2_linear_0_6)" stroke-width="1.08292" stroke-linejoin="round"/>
<path d="M97.7578 3.82046C98.1734 4.92425 98.7745 5.88379 99.5613 6.69909C101.229 8.41849 103.475 9.27819 106.301 9.27819C109.091 9.27819 111.321 8.41417 112.988 6.68613C114.458 5.15589 115.28 3.10912 115.454 0.545818H111.474C111.327 2.18091 110.851 3.45006 110.046 4.35327C109.07 5.45058 107.817 5.99923 106.288 5.99923C104.758 5.99923 103.497 5.44626 102.503 4.34031C102.359 4.17802 102.224 4.00473 102.101 3.82046H97.7578Z" stroke="url(#paint3_linear_0_6)" stroke-width="1.08292" stroke-linejoin="round"/>
<defs>
<linearGradient id="paint0_linear_0_6" x1="96.7913" y1="12.803" x2="116.086" y2="12.803" gradientUnits="userSpaceOnUse">
<stop stop-color="#68D4ED"/>
<stop offset="0.442708" stop-color="#95F270"/>
<stop offset="1" stop-color="#E5E564"/>
</linearGradient>
<linearGradient id="paint1_linear_0_6" x1="96.7913" y1="12.803" x2="116.086" y2="12.803" gradientUnits="userSpaceOnUse">
<stop stop-color="#68D4ED"/>
<stop offset="0.442708" stop-color="#95F270"/>
<stop offset="1" stop-color="#E5E564"/>
</linearGradient>
<linearGradient id="paint2_linear_0_6" x1="96.7913" y1="12.803" x2="116.086" y2="12.803" gradientUnits="userSpaceOnUse">
<stop stop-color="#68D4ED"/>
<stop offset="0.442708" stop-color="#95F270"/>
<stop offset="1" stop-color="#E5E564"/>
</linearGradient>
<linearGradient id="paint3_linear_0_6" x1="96.7913" y1="12.803" x2="116.086" y2="12.803" gradientUnits="userSpaceOnUse">
<stop stop-color="#68D4ED"/>
<stop offset="0.442708" stop-color="#95F270"/>
<stop offset="1" stop-color="#E5E564"/>
</linearGradient>
</defs>
</svg>
