<svg width="13" height="13" viewBox="0 0 13 13" fill="none" xmlns="http://www.w3.org/2000/svg">
<path d="M6.5 1.21875C5.45547 1.21875 4.43439 1.52849 3.5659 2.1088C2.6974 2.68911 2.02049 3.51393 1.62076 4.47895C1.22104 5.44397 1.11645 6.50586 1.32023 7.53032C1.52401 8.55478 2.027 9.49581 2.76559 10.2344C3.50419 10.973 4.44522 11.476 5.46968 11.6798C6.49414 11.8835 7.55603 11.779 8.52105 11.3792C9.48607 10.9795 10.3109 10.3026 10.8912 9.4341C11.4715 8.56561 11.7813 7.54453 11.7813 6.5C11.7798 5.09978 11.2229 3.75733 10.2328 2.76723C9.24267 1.77712 7.90022 1.22023 6.5 1.21875ZM8.81867 5.56867L5.97492 8.41242C5.93719 8.45019 5.89239 8.48016 5.84307 8.5006C5.79375 8.52105 5.74089 8.53157 5.6875 8.53157C5.63411 8.53157 5.58125 8.52105 5.53193 8.5006C5.48261 8.48016 5.43781 8.45019 5.40008 8.41242L4.18133 7.19367C4.1051 7.11744 4.06228 7.01405 4.06228 6.90625C4.06228 6.79845 4.1051 6.69506 4.18133 6.61883C4.25756 6.5426 4.36095 6.49977 4.46875 6.49977C4.57656 6.49977 4.67994 6.5426 4.75617 6.61883L5.6875 7.55066L8.24383 4.99383C8.28157 4.95608 8.32638 4.92614 8.3757 4.90571C8.42502 4.88529 8.47787 4.87477 8.53125 4.87477C8.58463 4.87477 8.63749 4.88529 8.6868 4.90571C8.73612 4.92614 8.78093 4.95608 8.81867 4.99383C8.85642 5.03157 8.88636 5.07638 8.90679 5.1257C8.92721 5.17501 8.93773 5.22787 8.93773 5.28125C8.93773 5.33463 8.92721 5.38749 8.90679 5.4368C8.88636 5.48612 8.85642 5.53093 8.81867 5.56867Z" fill="#66DB4A"/>
</svg>
