<svg width="79" height="79" viewBox="0 0 79 79" fill="none" xmlns="http://www.w3.org/2000/svg">
<path d="M39.2049 0.00220028C42.9992 -0.0386786 46.6492 0.49097 50.2993 1.51499C59.9251 4.2156 68.0604 10.3507 72.9628 19.098C75.7424 24.0577 77.0557 29.0867 77.9556 34.6526C78.146 35.8303 78.399 36.9551 78.4772 38.151C78.6235 40.3895 78.4952 42.6431 78.4579 44.8835C78.4162 47.3845 78.4403 49.8849 78.414 52.3854C78.3693 56.6401 78.6601 61.0481 77.4864 65.1857C76.2336 69.6019 73.5064 73.4887 69.4417 75.7303C69.033 75.9575 68.6156 76.1675 68.1895 76.3603C67.7635 76.5532 67.3302 76.7281 66.8897 76.8852C66.4492 77.0422 66.003 77.1809 65.5511 77.3012C65.0992 77.4214 64.6431 77.5229 64.1828 77.6055C60.9414 78.1613 57.5809 78.0559 54.3038 78.1751C50.701 78.3062 47.1094 78.4893 43.504 78.375C42.5357 78.3444 41.468 78.3919 40.535 78.1041C40.4644 78.083 40.3951 78.0584 40.327 78.0303C40.259 78.0023 40.1926 77.971 40.1276 77.9363C40.0626 77.9016 39.9995 77.8638 39.9384 77.8228C39.8772 77.7818 39.8182 77.7378 39.7614 77.691C39.7047 77.6441 39.6503 77.5946 39.5985 77.5424C39.5466 77.4901 39.4975 77.4353 39.4512 77.3782C39.4048 77.3209 39.3614 77.2616 39.3209 77.2002C39.2805 77.1386 39.2431 77.0752 39.209 77.01C38.9139 76.4392 38.9197 75.709 39.1265 75.1092C39.4058 74.2994 40.026 73.773 40.8276 73.5137C42.1861 73.0743 43.8793 73.1987 45.2935 73.1711C46.6153 73.1451 47.9412 73.0955 49.2627 73.1372C54.1272 73.2911 63.0228 74.1295 67.3222 72.0265C70.3796 70.5309 71.9717 67.506 73.014 64.4163C71.1329 64.458 69.2515 64.5468 67.3706 64.5739C64.2568 64.6188 60.7921 64.0387 58.4784 61.7665C55.9012 59.2357 55.7867 55.6757 55.7584 52.297C55.7484 50.4686 55.7661 48.6405 55.8115 46.8128C55.8655 43.4321 55.7272 40.0283 58.2991 37.4439C61.1125 34.6171 64.6827 34.8485 68.3637 34.9511C69.9388 34.9801 71.5139 34.9862 73.0891 34.9693C72.8217 33.7427 72.6434 32.4953 72.3814 31.2668C71.7341 28.229 70.7974 25.3016 69.4479 22.5013C69.1701 21.9457 68.8767 21.3984 68.5677 20.8595C68.2586 20.3205 67.9345 19.7908 67.5953 19.2704C67.2562 18.7499 66.9025 18.2395 66.5343 17.7391C66.1661 17.2388 65.784 16.7494 65.3879 16.2708C65.2164 16.0667 65.0425 15.8648 64.8661 15.6651C64.6897 15.4653 64.5108 15.2678 64.3295 15.0724C64.1482 14.8771 63.9645 14.6841 63.7784 14.4933C63.5923 14.3024 63.4039 14.1139 63.2132 13.9278C63.0224 13.7417 62.8294 13.558 62.6341 13.3766C62.4388 13.1953 62.2414 13.0164 62.0417 12.8398C61.842 12.6634 61.6401 12.4894 61.4361 12.318C61.2321 12.1464 61.0259 11.9775 60.8178 11.8111C60.6096 11.6447 60.3994 11.4809 60.1872 11.3198C59.9749 11.1585 59.7607 11 59.5446 10.8441C59.3284 10.6882 59.1104 10.535 58.8904 10.3845C58.6705 10.234 58.4487 10.0862 58.2252 9.94111C58.0016 9.79609 57.7762 9.65386 57.5491 9.51441C57.322 9.37496 57.0931 9.23833 56.8626 9.10452C56.6322 8.97072 56.4001 8.83979 56.1663 8.71173C55.9326 8.58367 55.6974 8.45853 55.4606 8.3363C55.2238 8.21408 54.9855 8.09476 54.7457 7.97837C54.5059 7.86207 54.2647 7.74873 54.0222 7.63835C53.7796 7.52788 53.5357 7.42047 53.2904 7.31611C53.0453 7.21174 52.7988 7.11044 52.5511 7.01218C52.3033 6.91393 52.0544 6.81872 51.8043 6.72657C51.5542 6.63452 51.303 6.54552 51.0507 6.45957C50.7985 6.37371 50.5452 6.29095 50.2908 6.21128C50.0365 6.13162 49.7813 6.05515 49.5251 5.98187C49.2689 5.9085 49.0117 5.83831 48.7537 5.77132C48.4958 5.70433 48.237 5.64057 47.9776 5.58005C47.718 5.51944 47.4577 5.46206 47.1968 5.40792C46.9358 5.35378 46.6743 5.30288 46.4121 5.25521C46.1499 5.20754 45.8871 5.1631 45.6238 5.12191C45.3605 5.08071 45.0967 5.04279 44.8325 5.00816C44.5682 4.97352 44.3036 4.94212 44.0386 4.91396C43.7735 4.88589 43.5082 4.86105 43.2426 4.83945C39.465 4.51187 36.0345 4.74538 32.3204 5.46562C26.7285 6.55007 22.1574 8.41437 17.7689 12.1058C11.1283 17.6914 6.10497 26.5444 5.35124 35.2558C7.30865 35.3057 9.28656 35.2812 11.2435 35.2222C14.3025 35.1299 17.4396 34.4857 19.9368 36.7179C22.2027 38.7434 22.8131 41.516 22.9725 44.4121C23.0856 46.4648 23.0692 48.5394 23.0782 50.5952C23.0875 52.7218 23.2684 55.1339 22.7698 57.205C22.7224 57.4025 22.6689 57.5982 22.6094 57.7923C22.5499 57.9863 22.4844 58.1784 22.4129 58.3684C22.3415 58.5583 22.2642 58.746 22.1812 58.9313C22.0981 59.1165 22.0093 59.2989 21.915 59.4787C21.8206 59.6583 21.7207 59.8349 21.6153 60.0085C21.5099 60.182 21.3993 60.3521 21.2835 60.5188C21.1676 60.6855 21.0467 60.8483 20.9206 61.0075C20.7947 61.1667 20.6639 61.3218 20.5283 61.4729C18.6631 63.5257 15.8858 64.4343 13.1781 64.5567C9.63533 64.7171 5.64833 64.8077 2.87704 62.2252C0.472435 59.9844 0.292923 56.3435 0.18888 53.2613C0.0730794 49.8343 0.16851 46.3937 0.1681 42.9647C0.16769 40.246 -0.00977068 37.5111 0.326694 34.8052C1.35919 26.5001 5.5905 17.8167 11.2969 11.7228C18.8436 3.66366 28.3441 0.35931 39.2049 0.00220028Z" fill="#163300"/>
<path d="M5.02346 39.8735C7.00561 40.0085 8.99815 39.9669 10.9829 39.9219C12.5817 39.8855 14.3469 39.7583 15.9242 40.0652C16.462 40.1698 16.9155 40.3244 17.3156 40.7173C17.7163 41.111 17.9382 41.6603 18.0471 42.2032C18.3504 43.7139 18.2365 45.3944 18.2437 46.9334L18.2823 53.309C18.2801 55.437 18.4435 56.9415 16.8323 58.5501C15.1725 59.8276 13.1508 59.7959 11.1498 59.8403C10.2571 59.8602 9.35471 59.9006 8.46207 59.8787C7.45924 59.8541 6.56127 59.6296 5.85717 58.8635C5.38535 58.3502 5.10193 57.7154 4.97574 57.0345C4.63846 55.2124 4.81578 52.8916 4.83069 51.0283C4.86641 47.3095 4.93067 43.5913 5.02346 39.8735Z" fill="#E5E564"/>
<path d="M68.0857 39.9992C69.9444 39.9155 71.8199 39.9617 73.681 39.9637C73.7436 40.7691 73.6917 41.5995 73.6874 42.408L73.6678 46.9415C73.6575 51.263 73.7144 55.5996 73.5949 59.9184C71.1916 59.7713 68.7784 59.7752 66.3718 59.7828C64.7928 59.7206 63.0758 59.6025 61.8372 58.4971C60.9721 57.7251 60.6725 56.7628 60.6199 55.6432C60.5166 53.4534 60.6181 51.2127 60.6236 49.0192C60.6279 47.2357 60.4658 44.4618 60.8121 42.7574C60.8273 42.684 60.845 42.6112 60.8651 42.539C60.8852 42.4668 60.9077 42.3954 60.9327 42.3247C60.9576 42.254 60.9848 42.1843 61.0144 42.1155C61.0441 42.0466 61.076 41.9788 61.1101 41.912C61.1442 41.8454 61.1806 41.78 61.2192 41.7157C61.2578 41.6515 61.2984 41.5886 61.3412 41.527C61.384 41.4655 61.4289 41.4055 61.4757 41.347C61.5225 41.2885 61.5712 41.2316 61.6219 41.1764C63.0721 39.6262 66.132 40.039 68.0857 39.9992Z" fill="#E5E564"/>
</svg>
