<svg width="75" height="77" viewBox="0 0 75 77" fill="none" xmlns="http://www.w3.org/2000/svg">
<path d="M58.9989 0.0284712C59.7252 0.00290482 60.4645 0.0627856 61.1923 0.0682543C63.859 0.0886254 66.529 0.188297 69.1946 0.193629C70.4107 0.195953 71.7855 -0.130807 72.9779 0.0596427C73.6381 0.16519 73.7316 0.917827 74.0804 1.38281C74.209 1.4375 74.3325 1.49505 74.4562 1.56013C74.4893 1.62494 74.5095 1.65474 74.522 1.73349C74.6017 2.23798 74.2448 2.82478 74.2418 3.34964C74.2368 4.2204 74.352 5.15775 74.4044 6.03193C74.4933 7.49673 74.5493 8.96277 74.5727 10.43C74.6322 13.2307 74.578 16.0307 74.5798 18.8315C74.5874 30.8244 73.9516 42.4623 67.7894 53.0961C65.3157 57.3646 62.2945 60.956 58.7638 64.3854C57.8386 65.2839 56.9053 66.2103 55.8943 67.0137C54.1398 68.4079 52.2483 69.6041 50.4075 70.876C49.2883 71.6491 48.1933 72.4592 47.0042 73.1238C45.7725 73.812 44.4809 74.3458 43.1968 74.9203C42.289 75.3265 41.3757 75.804 40.409 76.0541C39.8048 76.2104 39.1762 76.2782 38.5551 76.1982C37.4485 76.0554 36.4392 75.5809 35.41 75.1798C34.4701 74.8135 33.507 74.4717 32.5858 74.0614C31.1649 73.4285 29.4874 72.5366 28.1278 71.7619C26.566 70.872 25.0496 69.8656 23.5043 68.9414C19.6958 66.5637 16.6147 63.9767 13.4743 60.7829C12.5378 59.8305 11.5757 58.877 10.736 57.8364C9.92276 56.8209 9.15655 55.771 8.43732 54.6869C7.71818 53.6027 7.04889 52.4885 6.42946 51.3444C5.37946 49.4487 4.5757 47.4401 3.77657 45.4302C3.31488 44.269 2.81435 43.0906 2.47474 41.8879C2.27048 41.1646 2.14196 40.4125 2.00388 39.674C1.62093 37.6265 1.38277 35.4929 1.28843 33.414C1.02265 27.5539 1.3546 21.724 1.25876 15.8657C1.24441 14.9855 1.16894 14.1061 1.1379 13.2265L0.919698 6.48925C0.891124 5.77312 0.732804 5.05945 0.732667 4.34591C0.732394 3.7058 0.782297 2.90216 0.977668 2.28802C1.15882 1.71818 1.64171 1.47318 2.1406 1.22859C3.573 1.61468 5.40298 0.978802 6.87804 0.908118C8.25685 0.842083 9.64728 0.908393 11.0279 0.8764C12.5193 0.841811 14.0094 0.723274 15.502 0.689368L48.67 0.148784C50.7236 0.118706 52.7781 0.190072 54.8304 0.178587C56.2155 0.170658 57.6129 0.0715376 58.9989 0.0284712Z" fill="#163300"/>
<path d="M44.524 3.51514C48.2128 3.66102 51.9192 3.48342 55.61 3.48438C58.8324 3.4852 62.0561 3.66717 65.2784 3.69083C67.2614 3.70545 69.2527 3.61768 71.2336 3.7179C71.3382 5.07141 71.3233 6.44995 71.3412 7.80784C71.3866 10.5333 71.3821 13.2587 71.3277 15.984C71.2815 19.6112 71.3524 23.2393 71.1148 26.8619C70.9558 29.2851 70.5715 31.7202 70.1628 34.1113C69.7359 36.6089 69.274 39.1595 68.5695 41.5967C68.266 42.6471 67.8448 43.6699 67.4853 44.7029C67.077 45.8769 66.6829 47.0381 66.1846 48.1782C64.444 52.1594 61.3523 56.5387 58.3877 59.7261C57.7558 60.4055 57.0433 61.0259 56.3783 61.6741C55.2348 62.7887 54.041 63.9206 52.7821 64.9061C50.2946 66.8531 47.5468 68.5614 44.7768 70.0756C43.2619 70.9037 41.7722 71.7903 40.1544 72.4096C39.8211 72.5372 39.4554 72.6499 39.0951 72.632C37.5181 72.5537 34.7076 71.2969 33.2582 70.641C32.1018 70.1519 31.0769 69.4877 29.9778 68.8911C28.68 68.1867 27.3548 67.5174 26.0922 66.751C25.1832 66.1989 24.3113 65.5628 23.4369 64.9572C20.4519 62.89 17.6106 60.6844 15.1841 57.9653C14.6461 57.3683 14.1262 56.7559 13.6244 56.1281C13.1228 55.5002 12.6402 54.858 12.1766 54.2014C11.7131 53.5449 11.2695 52.8752 10.8458 52.1924C10.422 51.5094 10.0189 50.8145 9.63649 50.1077C3.91659 39.7157 4.27302 29.3044 4.5161 17.8355C4.61003 13.3996 4.40878 8.95094 4.66089 4.51893C9.65331 3.95305 14.6213 4.09428 19.632 4.02278C21.5031 3.99612 23.3734 3.83739 25.2435 3.77655C26.7021 3.72911 28.1607 3.75331 29.6193 3.72911L35.3307 3.57913C38.3921 3.51692 41.4663 3.64475 44.524 3.51514Z" fill="#95F270"/>
<path d="M56.3224 17.849C56.9431 17.7848 57.4797 17.8457 58.0449 18.1264C58.6704 18.437 59.267 18.9945 59.4728 19.6785C59.6163 20.1561 59.5301 20.6596 59.2964 21.093C58.4961 22.5776 56.454 24.3368 55.2519 25.5875L46.096 35.0184C44.9384 36.2261 43.8431 37.4945 42.6802 38.696C41.4885 39.9273 40.233 41.1037 39.0664 42.3584C37.6048 43.9307 36.2064 45.619 34.6719 47.1184C34.214 47.5657 33.7429 48.0496 33.1036 48.2105C32.7927 48.2887 32.1851 48.3897 31.9037 48.2063C31.8814 48.1918 31.8607 48.1755 31.8386 48.1606C30.6217 47.3373 28.8317 45.233 27.7673 44.085C25.2326 41.3654 22.7327 38.6142 20.2675 35.8314C19.352 34.7101 17.6866 33.6048 17.5511 32.0699C17.5 31.4903 17.6016 30.8837 18.0028 30.4403C18.3887 30.0139 19.0079 29.7496 19.5804 29.742C20.1072 29.735 20.5501 29.9639 20.9428 30.2991C21.9651 31.1717 22.7773 32.3674 23.6965 33.3486C25.3028 35.0631 26.9572 36.7319 28.5607 38.448C29.9358 39.9197 31.2274 41.4569 32.635 42.9038C33.3181 42.3699 33.9181 41.6379 34.5122 41.0046C35.9804 39.4123 37.4287 37.8021 38.8572 36.1741C40.476 34.3435 42.1695 32.5767 43.8209 30.776L49.7809 24.2247C50.8045 23.1057 51.8541 21.9831 52.8496 20.8401C53.4438 20.1579 53.9712 19.427 54.6424 18.8138C55.1567 18.3439 55.6663 18.0641 56.3224 17.849Z" fill="#163300"/>
</svg>
