<svg width="86" height="81" viewBox="0 0 86 81" fill="none" xmlns="http://www.w3.org/2000/svg">
<path d="M39.7948 0.0648636C39.8142 0.0625394 39.8336 0.0595323 39.853 0.0578917C41.5352 -0.0795107 44.1226 0.0600784 45.868 0.14293C50.3074 0.353477 56.1373 1.35754 60.2361 3.0225C62.2713 3.84937 64.1909 5.02187 66.0765 6.14338C67.1775 6.79812 68.3195 7.43961 69.3539 8.19443C70.9519 9.36037 72.4974 10.7053 73.9888 12.0067C77.9753 15.4852 81.9595 22.6291 83.4636 27.6822C84.3288 30.5894 84.7726 33.6174 84.9671 36.6388C85.1098 38.857 85.1247 41.1558 84.93 43.3696C84.6072 47.0406 83.6 51.7649 82.2287 55.1802C80.7389 58.8907 77.9892 63.263 75.3563 66.2529C74.6579 67.046 73.9467 67.8686 73.1838 68.5991C72.1201 69.6175 70.9342 70.5189 69.7847 71.4367C68.8192 72.2075 67.8544 73.0173 66.8304 73.7084C65.391 74.6798 63.7434 75.6784 62.1647 76.4019C60.783 77.0353 59.2874 77.5393 57.8527 78.0479C56.6742 78.4655 55.4957 78.8984 54.2812 79.2004C53.0901 79.4965 51.8911 79.658 50.6843 79.8669C49.1195 80.138 47.6244 80.443 46.0315 80.5428C42.9308 80.7364 38.7895 80.7717 35.7188 80.3275C30.4773 79.5691 24.7848 77.0542 20.2825 74.3141C19.1974 73.6537 18.049 73.0595 16.9982 72.3485C16.098 71.7394 15.2028 70.9874 14.3818 70.2734C11.8046 68.0314 9.8092 65.4267 7.87354 62.6379C6.63706 60.8563 5.41547 58.996 4.49508 57.0276C3.67299 55.2697 3.10534 53.4816 2.56557 51.6233C1.81198 49.029 1.16981 46.5271 0.987975 43.8177C0.873405 42.1105 0.940396 40.3734 0.990435 38.6637C1.20823 31.2173 2.67522 25.2348 6.67001 18.8734C7.93848 16.8534 9.24893 15.0373 10.8241 13.243C14.3149 9.26645 17.0333 7.07266 21.7439 4.63305C22.824 4.07373 23.9022 3.48201 25.0291 3.02223C29.5663 1.17092 34.9209 0.382598 39.7948 0.0648636Z" fill="#163300"/>
<path d="M41.08 3.75667C41.6244 3.72181 42.1934 3.76925 42.7392 3.78347C44.9073 3.84007 46.9319 4.0956 49.0631 4.48525C53.8521 5.36066 58.8772 6.65388 63.1591 9.03183C64.0179 9.50884 64.8105 10.0936 65.6342 10.6269C66.9519 11.4799 68.2472 12.2933 69.4454 13.3173C70.7451 14.4278 73.1467 16.8469 74.1694 18.2212C74.6389 18.8519 75.0332 19.5583 75.4394 20.2325C75.6312 20.5574 75.8184 20.885 76.0009 21.2151C76.1835 21.5453 76.3614 21.878 76.5345 22.2132C76.7077 22.5484 76.8761 22.886 77.0397 23.2258C77.2034 23.5658 77.3622 23.908 77.5162 24.2525C77.6702 24.5969 77.8193 24.9434 77.9635 25.2921C78.1077 25.6407 78.247 25.9913 78.3813 26.3438C78.5156 26.6964 78.6449 27.0508 78.7692 27.407C78.8935 27.7633 79.0128 28.1212 79.127 28.4808C79.2412 28.8403 79.3504 29.2014 79.4544 29.5641C79.5584 29.9268 79.6573 30.2908 79.751 30.6562C79.8448 31.0217 79.9334 31.3884 80.0168 31.7564C80.1002 32.1244 80.1784 32.4934 80.2514 32.8635C80.3244 33.2337 80.3922 33.6048 80.4547 33.9768C80.5172 34.3489 80.5744 34.7218 80.6264 35.0955C80.6784 35.4692 80.7252 35.8435 80.7665 36.2185C80.808 36.5936 80.8441 36.9691 80.875 37.3451C81.3071 42.901 79.9898 49.7148 77.7843 54.8252C77.3692 55.7872 76.8601 56.721 76.3683 57.6455C75.4676 59.3384 74.3959 61.0779 73.1412 62.53C71.3338 64.6217 69.2789 66.7699 67.1045 68.4883C66.019 69.3464 64.8418 70.1178 63.6771 70.8637C62.8446 71.3968 62.0127 71.9532 61.1455 72.4288C57.4127 74.4759 53.357 75.5002 49.1844 76.1222C47.742 76.3372 46.3252 76.5575 44.8697 76.6669C44.5633 76.6791 44.2569 76.6878 43.9504 76.6931C43.6437 76.6983 43.3372 76.7001 43.0307 76.6984C42.724 76.6968 42.4175 76.6917 42.1109 76.683C41.8045 76.6744 41.4982 76.6624 41.1921 76.6469C40.8858 76.6314 40.5798 76.6124 40.274 76.5899C39.9683 76.5675 39.6628 76.5416 39.3576 76.5122C39.0524 76.483 38.7476 76.4502 38.4432 76.4139C38.1387 76.3777 37.8347 76.338 37.5311 76.2949C37.2276 76.2518 36.9246 76.2053 36.6221 76.1553C36.3196 76.1053 36.0177 76.0519 35.7163 75.9952C35.4151 75.9385 35.1145 75.8783 34.8145 75.8147C34.5147 75.7512 34.2155 75.6842 33.917 75.6139C33.6186 75.5435 33.321 75.4698 33.0243 75.3928C32.7276 75.3157 32.4317 75.2352 32.1368 75.1515C31.8418 75.0677 31.5479 74.9807 31.2549 74.8903C30.962 74.7999 30.6701 74.7062 30.3792 74.6092C30.0884 74.5122 29.7987 74.4119 29.51 74.3083C29.2214 74.2048 28.9341 74.098 28.648 73.988C28.3618 73.878 28.0769 73.7647 27.7932 73.6482C27.5097 73.5318 27.2274 73.4121 26.9465 73.2892C26.6656 73.1664 26.3861 73.0404 26.108 72.9112C25.83 72.782 25.5535 72.6497 25.2784 72.5143C25.0033 72.3789 24.7298 72.2403 24.458 72.0987C24.186 71.957 23.9157 71.8124 23.6471 71.6647C23.3784 71.517 23.1114 71.3662 22.8462 71.2125C22.5809 71.0587 22.3174 70.902 22.0557 70.7423C21.794 70.5826 21.5341 70.42 21.2761 70.2543C21.0181 70.0887 20.762 69.9202 20.5077 69.7489C20.2535 69.5775 20.0013 69.4033 19.751 69.2262C19.5007 69.0491 19.2524 68.8692 19.0062 68.6866C18.76 68.5038 18.5158 68.3184 18.2738 68.1301C18.0318 67.9419 17.7919 67.751 17.5542 67.5574C14.4816 65.0246 11.2884 61.1698 9.38212 57.6656C7.04915 53.3765 5.61319 48.2765 5.12347 43.433C4.34226 35.7073 5.60622 29.1803 9.31048 22.3619C10.1665 20.7862 11.1007 19.1107 12.2425 17.7263C15.1701 14.1764 17.7064 12.0176 21.6597 9.68644C22.6239 9.11796 23.5902 8.49849 24.5948 8.00698C26.5756 7.03792 28.7602 6.31386 30.8675 5.68044C32.2157 5.27534 33.5439 4.83114 34.9264 4.54882C36.9567 4.13443 39.0212 3.95888 41.08 3.75667Z" fill="#DDCB9A"/>
<path d="M62.9642 21.4463C63.0774 21.438 63.1879 21.4358 63.3014 21.4361C64.2628 21.438 65.2008 22.0175 65.8613 22.6854C66.5657 23.3977 66.9038 24.406 66.882 25.3999C66.8652 26.1728 66.6253 26.8386 66.1302 27.4312C65.6643 27.9887 65.0966 28.4887 64.5783 28.9978C63.5932 29.9509 62.6228 30.9186 61.6672 31.9012C60.1518 33.4726 58.6941 35.1036 57.207 36.7017L52.3956 41.8711C49.6601 44.8202 46.9699 47.81 44.3248 50.8403C42.7202 52.6952 40.9948 55.0315 39.2331 56.6742C38.6526 57.2156 37.8363 57.6195 37.0255 57.5719C36.297 57.5291 35.5949 57.2264 35.0021 56.8118C34.1168 56.1927 33.3508 55.3572 32.586 54.5977C30.5132 52.5392 28.6016 50.3842 26.6789 48.1862C25.6475 47.0071 24.5616 45.8778 23.5362 44.6947C22.3428 43.2874 20.7802 41.8683 20.3579 40.0198C20.1275 39.0115 20.1424 37.9524 20.7351 37.0601C21.1685 36.4079 21.8887 35.9765 22.6531 35.835C23.2448 35.7255 23.8866 35.8055 24.4024 36.1269C25.7717 36.9799 28.1339 40.0613 29.2918 41.3943L34.5168 47.3423C34.9898 47.8827 35.9255 49.1488 36.483 49.4504C36.4837 49.4508 36.6438 49.5327 36.6753 49.5244C36.8366 49.4815 39.2433 46.5993 39.5617 46.2357L44.5086 40.599C45.0986 39.9196 45.6242 39.1828 46.2309 38.5196C49.1603 35.3168 52.2224 32.2515 55.1774 29.0766C55.8449 28.3595 56.4572 27.5987 57.1113 26.8712C57.9442 25.9449 58.8148 25.0469 59.6669 24.138C60.3573 23.4014 61.0327 22.6191 61.8158 21.9795C62.1804 21.6817 62.5043 21.5389 62.9642 21.4463Z" fill="#163300"/>
</svg>
