<svg width="116" height="21" viewBox="0 0 116 21" fill="none" xmlns="http://www.w3.org/2000/svg">
<path d="M0.999893 20.1722V0.679689H15.8385V3.9772H4.93563V8.8124H15.8385V12.1314L4.93563 12.0966V16.888H15.8385V20.1722H0.999893Z" fill="white"/>
<path d="M17.9912 20.1722V0.679688H21.8206L29.7984 13.6969V0.679688H33.4549V20.1722H29.5059L21.6477 7.46086V20.1722H17.9912Z" fill="white"/>
<path d="M42.5881 20.1722L35.6208 0.679688H39.8889L44.8219 15.1063L49.5953 0.679688H53.7704L46.7898 20.1722H42.5881Z" fill="white"/>
<path d="M55.9362 10.5417C55.9362 8.62157 56.2234 7.01005 56.7977 5.70711C57.2263 4.74706 57.8092 3.88558 58.5464 3.12268C59.2921 2.35978 60.1065 1.79404 60.9894 1.42544C62.1637 0.928273 63.5181 0.679688 65.0524 0.679688C67.8298 0.679688 70.0499 1.54116 71.7128 3.26412C73.3844 4.98707 74.2201 7.38292 74.2201 10.4517C74.2201 13.4947 73.3929 15.8777 71.7385 17.6006C70.0842 19.315 67.8726 20.1722 65.1039 20.1722C62.3009 20.1722 60.0722 19.3193 58.4178 17.6135C56.7634 15.8991 55.9362 13.5418 55.9362 10.5417ZM59.8579 10.4131C59.8579 12.5475 60.3508 14.1676 61.3365 15.2734C62.3223 16.3706 63.5738 16.9192 65.091 16.9192C66.6082 16.9192 67.8512 16.3749 68.8198 15.2862C69.797 14.189 70.2856 12.5475 70.2856 10.3617C70.2856 8.20154 69.8099 6.59002 68.8584 5.5271C67.9155 4.46419 66.6597 3.93273 65.091 3.93273C63.5224 3.93273 62.258 4.47276 61.298 5.55282C60.3379 6.62431 59.8579 8.2444 59.8579 10.4131Z" fill="white"/>
<path d="M83.5261 20.1722V11.9683L76.3859 0.679689H80.9998L85.5871 8.3916L90.0812 0.679689H94.6153L87.4486 11.9949V20.1722H83.5261Z" fill="white"/>
<path d="M0.999893 20.1722V0.679689H15.8385V3.9772H4.93563V8.8124H15.8385V12.1314L4.93563 12.0966V16.888H15.8385V20.1722H0.999893Z" stroke="white" stroke-width="1.08292" stroke-linejoin="round"/>
<path d="M17.9912 20.1722V0.679688H21.8206L29.7984 13.6969V0.679688H33.4549V20.1722H29.5059L21.6477 7.46086V20.1722H17.9912Z" stroke="white" stroke-width="1.08292" stroke-linejoin="round"/>
<path d="M42.5881 20.1722L35.6208 0.679688H39.8889L44.8219 15.1063L49.5953 0.679688H53.7704L46.7898 20.1722H42.5881Z" stroke="white" stroke-width="1.08292" stroke-linejoin="round"/>
<path d="M55.9362 10.5417C55.9362 8.62157 56.2234 7.01005 56.7977 5.70711C57.2263 4.74706 57.8092 3.88558 58.5464 3.12268C59.2921 2.35978 60.1065 1.79404 60.9894 1.42544C62.1637 0.928273 63.5181 0.679688 65.0524 0.679688C67.8298 0.679688 70.0499 1.54116 71.7128 3.26412C73.3844 4.98707 74.2201 7.38292 74.2201 10.4517C74.2201 13.4947 73.3929 15.8777 71.7385 17.6006C70.0842 19.315 67.8726 20.1722 65.1039 20.1722C62.3009 20.1722 60.0722 19.3193 58.4178 17.6135C56.7634 15.8991 55.9362 13.5418 55.9362 10.5417ZM59.8579 10.4131C59.8579 12.5475 60.3508 14.1676 61.3365 15.2734C62.3223 16.3706 63.5738 16.9192 65.091 16.9192C66.6082 16.9192 67.8512 16.3749 68.8198 15.2862C69.797 14.189 70.2856 12.5475 70.2856 10.3617C70.2856 8.20154 69.8099 6.59002 68.8584 5.5271C67.9155 4.46419 66.6597 3.93273 65.091 3.93273C63.5224 3.93273 62.258 4.47276 61.298 5.55282C60.3379 6.62431 59.8579 8.2444 59.8579 10.4131Z" stroke="white" stroke-width="1.08292" stroke-linejoin="round"/>
<path d="M83.5261 20.1722V11.9683L76.3859 0.679689H80.9998L85.5871 8.3916L90.0812 0.679689H94.6153L87.4486 11.9949V20.1722H83.5261Z" stroke="white" stroke-width="1.08292" stroke-linejoin="round"/>
<path d="M112.548 14.0676C113.329 14.8764 113.925 15.8284 114.338 16.9235H110.029C109.906 16.7406 109.773 16.5687 109.63 16.4077C108.644 15.3105 107.392 14.7619 105.875 14.7619C104.358 14.7619 103.115 15.3062 102.146 16.3949C101.348 17.2909 100.876 18.5501 100.73 20.1722H96.7812C96.9545 17.6292 97.77 15.5986 99.2277 14.0804C100.882 12.3661 103.094 11.5089 105.862 11.5089C108.665 11.5089 110.894 12.3618 112.548 14.0676Z" fill="url(#paint0_linear_580_142)"/>
<path d="M97.4435 3.92844C97.8558 5.02351 98.4522 5.97547 99.2327 6.78432C100.887 8.49013 103.116 9.34304 105.919 9.34304C108.688 9.34304 110.899 8.48585 112.553 6.77146C114.011 5.25332 114.827 3.22272 115 0.679688H111.051C110.905 2.30185 110.433 3.56097 109.635 4.45704C108.666 5.54568 107.423 6.08999 105.906 6.08999C104.389 6.08999 103.137 5.54139 102.151 4.44419C102.008 4.28318 101.875 4.11126 101.752 3.92844H97.4435Z" fill="url(#paint1_linear_580_142)"/>
<path d="M112.548 14.0676C113.329 14.8764 113.925 15.8284 114.338 16.9235H110.029C109.906 16.7406 109.773 16.5687 109.63 16.4077C108.644 15.3105 107.392 14.7619 105.875 14.7619C104.358 14.7619 103.115 15.3062 102.146 16.3949C101.348 17.2909 100.876 18.5501 100.73 20.1722H96.7812C96.9545 17.6292 97.77 15.5986 99.2277 14.0804C100.882 12.3661 103.094 11.5089 105.862 11.5089C108.665 11.5089 110.894 12.3618 112.548 14.0676Z" stroke="url(#paint2_linear_580_142)" stroke-width="1.08292" stroke-linejoin="round"/>
<path d="M97.4435 3.92844C97.8558 5.02351 98.4522 5.97547 99.2327 6.78432C100.887 8.49013 103.116 9.34304 105.919 9.34304C108.688 9.34304 110.899 8.48585 112.553 6.77146C114.011 5.25332 114.827 3.22272 115 0.679688H111.051C110.905 2.30185 110.433 3.56097 109.635 4.45704C108.666 5.54568 107.423 6.08999 105.906 6.08999C104.389 6.08999 103.137 5.54139 102.151 4.44419C102.008 4.28318 101.875 4.11126 101.752 3.92844H97.4435Z" stroke="url(#paint3_linear_580_142)" stroke-width="1.08292" stroke-linejoin="round"/>
<defs>
<linearGradient id="paint0_linear_580_142" x1="96.4846" y1="12.84" x2="115.626" y2="12.84" gradientUnits="userSpaceOnUse">
<stop stop-color="#68D4ED"/>
<stop offset="0.442708" stop-color="#95F270"/>
<stop offset="1" stop-color="#E5E564"/>
</linearGradient>
<linearGradient id="paint1_linear_580_142" x1="96.4846" y1="12.84" x2="115.626" y2="12.84" gradientUnits="userSpaceOnUse">
<stop stop-color="#68D4ED"/>
<stop offset="0.442708" stop-color="#95F270"/>
<stop offset="1" stop-color="#E5E564"/>
</linearGradient>
<linearGradient id="paint2_linear_580_142" x1="96.4846" y1="12.84" x2="115.626" y2="12.84" gradientUnits="userSpaceOnUse">
<stop stop-color="#68D4ED"/>
<stop offset="0.442708" stop-color="#95F270"/>
<stop offset="1" stop-color="#E5E564"/>
</linearGradient>
<linearGradient id="paint3_linear_580_142" x1="96.4846" y1="12.84" x2="115.626" y2="12.84" gradientUnits="userSpaceOnUse">
<stop stop-color="#68D4ED"/>
<stop offset="0.442708" stop-color="#95F270"/>
<stop offset="1" stop-color="#E5E564"/>
</linearGradient>
</defs>
</svg>
