<svg width="398" height="317" viewBox="0 0 398 317" fill="none" xmlns="http://www.w3.org/2000/svg">
<g clip-path="url(#clip0_492_1899)">
<path d="M-519.875 -934.792H731.667V-534.324V-495.128V-488.069V-480.605V-471.748V-346.919V-299.474V-298.341V-250.761C729.039 -248.778 726.717 -246.61 724.358 -244.32L723.845 -244.367L721.571 -242.216C718.992 -239.541 716.242 -235.262 713.407 -233.144L712.234 -230.715C709.63 -226.111 708.738 -221.227 707.87 -216.089C707.895 -213.249 707.797 -210.352 708.115 -207.53L709.96 -202.746C711.345 -201.588 712.739 -200.442 714.14 -199.308C714.189 -197.773 714.177 -196.221 714.495 -194.713C714.556 -188.769 714.812 -182.664 715.57 -176.76C716.145 -167.713 715.411 -140.766 710.999 -133.178C710.083 -132.884 709.3 -132.658 708.335 -132.533L708.64 -102.822C708.726 -102.435 708.811 -102.049 708.897 -101.66C709.643 -98.0239 708.604 -86.6537 711.83 -84.7031C715.008 -82.7805 727.303 -83.1435 731.667 -83.2119V-58.6932V-55.4312V-50.4568V-34.7856V-30.7266V-25.3611V10.6965V31.8823V65.2327V68.337V71.7812V84.5167V92.1897V96.9709V100.997V316.75H534.791H472.048H467.089H442.521H435.906H427.502C424.468 314.195 421.418 314.868 417.735 315.026L413.69 314.696L412.548 314.648C411.338 314.586 410.221 314.391 409.037 314.122C407.88 314.88 407.568 315.515 406.985 316.75H397.261H393.334H379.341H370.797H368.974H356.349H215.001H67.9769H60.937H-52.8911H-184.659H-227.991H-231.72H-244.643H-253.403H-365.252H-467.22H-519.051H-519.875V32.6901V16.2942V13.5943V-4.14111V-7.81879V-10.933V-17.5157V-22.5158V-24.2098V-47.4807V-74.7922V-85.6172V-93.6851V-98.2048V-103.27V-109.564V-111.022V-114.934V-122.42V-156.007V-159.213V-163.429V-166.871V-170.039V-173.589V-174.84V-207.541V-210.393V-217.965V-220.083V-227.538V-244.213V-248.188V-250.931V-277.505V-284.617V-291.352V-295.457V-303.024V-305.264V-309.985V-313.01V-334.273V-337.984V-341.608V-348.77V-355.465V-479.237V-496.15V-500.315V-514.751V-522.529V-546.683V-934.792Z" fill="#FAF6E0"/>
<path d="M-519.875 -546.683C-513.314 -547.127 -506.787 -548.137 -500.216 -548.348C-490.655 -548.608 -481.094 -548.601 -471.533 -548.327C-461.972 -548.052 -452.426 -547.51 -442.896 -546.7C-433.365 -545.89 -423.865 -544.814 -414.395 -543.472C-404.924 -542.13 -395.499 -540.524 -386.119 -538.654C-377.805 -536.959 -367.346 -535.364 -359.716 -531.69C-350.795 -529.02 -342.022 -525.877 -333.043 -523.406C-318.553 -519.417 -303.537 -516.106 -289.407 -510.985C-273.893 -506.931 -258.603 -501.255 -243.494 -495.893C-196.558 -479.233 -164.691 -463.895 -129.064 -428.438C-118.685 -418.109 -108.865 -407.537 -100.143 -395.751C-82.4807 -371.889 -68.1516 -345.74 -50.9624 -321.583C-22.7245 -281.898 10.137 -245.56 40.8964 -207.857L39.9932 -207.409C41.9108 -204.281 45.2108 -201.354 47.8898 -198.866C63.341 -184.516 82.3904 -177.664 101.751 -170.257C106.276 -168.527 110.461 -166.256 115.089 -164.793L115.628 -164.027C115.513 -161.505 117.176 -159.418 118.916 -157.605C120.806 -155.637 123.542 -153.652 126 -152.477C126.974 -152.011 127.589 -151.466 128.046 -150.449C128.278 -149.931 128.321 -149.426 128.4 -148.88C129.811 -147.51 131.066 -145.866 132.635 -144.716C138.183 -139.251 143.17 -112.64 147.006 -111.777C146.12 -117.924 141.623 -125.526 142.381 -131.445C142.544 -132.591 142.72 -133.745 143.016 -134.866C145.036 -142.551 152.367 -151.05 159.106 -155.042C167.119 -159.789 172.763 -157.604 180.944 -155.361C187.896 -155.493 207.347 -141.951 214.561 -138.254C222.822 -132.499 231.882 -127.462 240.556 -122.337L249.887 -117.084L253.57 -115.032L256.77 -112.237C258.459 -109.621 259.359 -106.692 260.399 -103.775C261.234 -106.574 261.63 -109.564 261.126 -112.466C260.859 -114.004 260.849 -113.557 261.594 -114.725C263.749 -115.377 265.763 -116.122 267.814 -117.048C267.201 -117.458 266.4 -117.349 265.672 -117.401C265.878 -117.508 266.074 -117.638 266.29 -117.722C268.138 -118.43 269.047 -118.769 270.589 -120.105C270.738 -120.234 270.882 -120.367 271.03 -120.496L273.183 -121.644L279.321 -123.97C278.914 -122.511 278.648 -121.804 278.768 -120.279C285.811 -122.636 293.4 -125.636 300.721 -126.782C304.242 -130.042 308.828 -131.986 313.069 -134.129C316.783 -134.734 324.939 -136.842 328.181 -134.48C328.703 -134.1 329.228 -133.466 329.648 -132.969L331.7 -132.157C332.847 -131.302 333.846 -130.558 334.787 -129.469L335.571 -129.233C336.347 -128.194 336.035 -128.306 337.456 -127.923C339.401 -129.117 341.826 -130.586 343.19 -132.434C343.98 -133.503 344.69 -134.702 345.426 -135.815C345.638 -138.76 345.179 -141.619 344.817 -144.536L344.807 -145.092C346.236 -146.432 347.265 -148.188 348.37 -149.806L347.066 -152.136L345.168 -150.641L344.053 -151.773L344.326 -152.732C346.295 -157.089 350.301 -160.321 353.712 -163.54L353.937 -163.957L356.836 -166.813C362.397 -173.551 368.34 -179.949 373.864 -186.74C376.601 -190.149 379.261 -193.617 381.844 -197.144C383.274 -198.374 383.589 -201.245 384.031 -203.066L387.666 -205.836C392.144 -209.726 396.969 -213.123 402.141 -216.027C402.757 -216.811 403.872 -217.154 404.765 -217.581C407.7 -219.808 411.261 -221.093 413.84 -223.772C416.166 -226.582 421.115 -229.937 424.653 -230.843L426.276 -230.565C427.072 -228.734 426.677 -227.409 425.977 -225.57C424.925 -222.811 423.49 -220.552 421.815 -218.144C423.46 -219.684 425.325 -221.98 427.453 -222.694C428.544 -223.698 429.566 -224.8 430.612 -225.852L433.437 -228.997L433.106 -226.781L434.037 -226.791C435.396 -227.976 436.633 -229.12 438.384 -229.68C438.763 -229.801 439.146 -229.906 439.527 -230.018C437.76 -228.384 435.642 -226.74 434.298 -224.737C433.718 -223.02 433.165 -221.674 433.46 -219.825C434.635 -218.277 436.239 -217.75 437.961 -216.995L438.829 -215.422L438.905 -214.385L439.603 -214.367C440.999 -212.939 441.217 -212.8 441.573 -210.86C443.706 -213.588 446.54 -215.567 449.251 -217.688C455.643 -220.266 464.843 -230.135 472.781 -234.099C472.898 -235.042 472.919 -234.522 472.579 -235.644L469.958 -236.121L472.42 -237.623C473.89 -236.626 474.943 -235.824 476.096 -234.442C476.681 -235.817 476.334 -236.919 476.069 -238.329C475.885 -239.301 476.158 -239.306 476.687 -240.096L476.716 -240.693C479.971 -240.466 482.812 -238.954 485.071 -236.587L496.197 -232.348C501.708 -230.203 507.31 -228.336 513.005 -226.747C518.7 -225.156 524.459 -223.85 530.282 -222.829C565.272 -216.76 614.076 -217.144 643.814 -238.455C653.188 -245.173 666.008 -256.468 668.01 -268.486C667.74 -270.797 667.925 -271.317 669.271 -273.156C669.372 -272.995 669.476 -272.835 669.575 -272.671C671.268 -269.871 671.676 -265.856 673.647 -263.468C674.884 -263.17 675.772 -263.194 677.033 -263.336C679.647 -260.867 681.169 -254.553 682.536 -251.152C685.882 -242.835 694.738 -224.033 701.233 -218.682C703.214 -217.047 705.377 -216.485 707.87 -216.089C707.895 -213.249 707.797 -210.352 708.115 -207.53L709.96 -202.746C711.345 -201.587 712.739 -200.441 714.14 -199.308C714.189 -197.773 714.177 -196.221 714.495 -194.713C714.556 -188.769 714.812 -182.664 715.57 -176.759C716.145 -167.713 715.411 -140.766 710.999 -133.178C710.083 -132.883 709.3 -132.657 708.335 -132.533L708.64 -102.822C708.726 -102.435 708.811 -102.048 708.897 -101.66C709.643 -98.0236 708.604 -86.6534 711.83 -84.7028C715.008 -82.7803 727.303 -83.1432 731.667 -83.2116V-58.693V-55.4309V-50.4565V-34.7853V-30.7264V-25.3608V10.6968V31.8826V65.2329V68.3373V71.7815V84.517V92.19V96.9713V100.997V316.75H534.791H472.048H467.089H442.521H435.906H427.502C424.468 314.196 421.418 314.868 417.735 315.027L413.69 314.697L412.548 314.648C411.338 314.587 410.221 314.391 409.037 314.122C407.88 314.88 407.568 315.516 406.985 316.75H397.261H393.334H379.341H370.797H368.974H356.348H215.001H67.9769H60.937H-52.891H-184.659H-227.991H-231.72H-244.643H-253.403H-365.252H-467.22H-519.051H-519.875V32.6904V16.2944V13.5946V-4.14087V-7.81854V-10.9327V-17.5154V-22.5156V-24.2095V-47.4804V-74.7919V-85.617V-93.6848V-98.2045V-103.269V-109.564V-111.022V-114.934V-122.42V-156.006V-159.212V-163.429V-166.871V-170.039V-173.589V-174.839V-207.541V-210.392V-217.965V-220.083V-227.537V-244.213V-248.188V-250.93V-277.505V-284.617V-291.351V-295.457V-303.023V-305.264V-309.985V-313.01V-334.273V-337.983V-341.607V-348.769V-355.465V-479.237V-496.149V-500.315V-514.75V-522.528V-546.683Z" fill="#FAF6E0"/>
<path d="M-519.875 -546.683C-513.314 -547.127 -506.787 -548.137 -500.216 -548.348C-490.655 -548.608 -481.094 -548.601 -471.533 -548.327C-461.972 -548.052 -452.426 -547.51 -442.896 -546.7C-433.365 -545.89 -423.865 -544.814 -414.395 -543.472C-404.924 -542.13 -395.499 -540.524 -386.119 -538.654C-377.805 -536.959 -367.346 -535.364 -359.716 -531.69C-350.795 -529.02 -342.022 -525.877 -333.043 -523.406C-318.553 -519.417 -303.537 -516.106 -289.407 -510.985C-273.893 -506.931 -258.603 -501.255 -243.494 -495.893C-196.558 -479.233 -164.691 -463.895 -129.064 -428.438C-118.685 -418.109 -108.865 -407.537 -100.143 -395.751C-82.4807 -371.889 -68.1515 -345.74 -50.9624 -321.583C-22.7245 -281.898 10.137 -245.56 40.8964 -207.857L39.9932 -207.409C41.9108 -204.281 45.2108 -201.354 47.8898 -198.866C63.341 -184.516 82.3904 -177.664 101.751 -170.257C106.276 -168.527 110.461 -166.256 115.089 -164.793L115.628 -164.027C115.513 -161.505 117.176 -159.418 118.916 -157.605C120.806 -155.637 123.542 -153.652 126 -152.477C126.974 -152.011 127.589 -151.466 128.046 -150.449C128.278 -149.931 128.321 -149.426 128.4 -148.88C129.811 -147.51 131.066 -145.866 132.635 -144.716C138.183 -139.251 143.17 -112.64 147.006 -111.777C148.115 -109.081 148.088 -105.867 148.156 -102.976L146.806 -106.683C139.758 -105.351 130.107 -104.615 122.963 -105.046L123.134 -105.389L122.839 -105.95L119.141 -106.232C112.713 -105.955 103.812 -105.673 99.2837 -100.426C93.0248 -93.1739 99.1982 -81.8954 95.4924 -73.7102C91.728 -65.3943 77.8279 -58.5219 75.6413 -53.3104C74.1967 -52.0234 72.8131 -50.8109 71.1802 -49.7659L71.6777 -46.4916L71.9832 -44.9284L73.4034 -43.9861C71.8843 -43.7514 70.5753 -43.705 69.0511 -43.7563C67.2827 -44.5605 65.7463 -45.4258 64.1342 -46.5148L61.9477 -47.5733C58.4118 -49.3614 55.1021 -51.829 51.8021 -54.0302L52.1786 -51.9366C50.5042 -51.7251 49.9847 -53.8126 48.1661 -52.7689C45.3452 -54.1671 42.4633 -55.3087 39.5336 -56.449L39.1523 -55.3624C36.3815 -56.1691 34.1473 -56.7509 31.2812 -56.0579C29.3062 -55.1217 26.9277 -53.6183 24.7205 -53.5645C22.9727 -52.61 21.0624 -51.2937 19.1508 -50.7534C14.482 -47.9326 9.47095 -45.5102 4.91821 -42.5317C-7.21344 -36.3217 -20.2752 -32.0622 -33.871 -34.9894C-34.5188 -35.3989 -34.7473 -35.8157 -35.5515 -35.5663C-37.3568 -35.0066 -39.2549 -33.0009 -40.7044 -31.7933C-39.1021 -30.2741 -37.5645 -29.1241 -36.9974 -26.9058C-36.9168 -26.5868 -36.8275 -26.2702 -36.7432 -25.9524L-35.6029 -26.0123C-35.3878 -24.619 -34.9478 -23.7549 -35.9879 -22.5986C-36.3448 -22.2026 -37.3275 -21.4498 -37.7687 -21.1003L-35.3242 -18.4114C-38.0486 -17.4886 -40.1263 -16.4143 -42.3238 -14.5468C-43.8919 -12.3713 -47.1845 -9.08716 -48.1 -6.8175C-51.7935 -6.76373 -55.6557 -6.46429 -58.8652 -8.56158L-62.4328 -10.2653L-58.7503 -10.797C-59.8479 -11.9385 -60.5873 -13.1449 -61.3927 -14.493C-62.9608 -16.2933 -65.3331 -17.9005 -66.3586 -20.0663C-66.9501 -21.3154 -66.3097 -20.4109 -67.2825 -21.6747C-67.4488 -21.8898 -67.6272 -22.0939 -67.7995 -22.3041C-68.2346 -19.6727 -71.1961 -15.1346 -72.8473 -12.9946C-73.0673 -12.7098 -73.3789 -12.5093 -73.6442 -12.2673L-74.5083 -12.8112C-75.3296 -12.5802 -75.8319 -12.3504 -76.6862 -12.5093L-77.1727 -12.7318C-79.798 -15.7299 -86.9858 -15.4769 -90.8113 -15.78C-89.4253 -14.8633 -89.0171 -15.0259 -88.5905 -13.3441C-90.1171 -11.9031 -92.5187 -11.8934 -94.5146 -11.9349C-95.5469 -11.965 -96.5785 -12.0176 -97.6092 -12.0926C-106.437 -11.8274 -115.21 -11.3324 -123.918 -9.76672L-124.47 -11.1649C-126.15 -12.4922 -127.47 -12.3138 -129.57 -12.5363L-126.029 -12.8602C-127.694 -13.6375 -129.311 -13.9027 -131.1 -14.2156L-129.174 -15.7017C-130.463 -15.6492 -131.792 -15.5551 -133.08 -15.6321C-134.959 -15.7433 -135.536 -16.0073 -136.763 -17.4006L-136.067 -17.6096C-135.83 -18.6509 -135.956 -19.2963 -136.099 -20.3412C-134.051 -21.1088 -131.694 -21.2872 -129.528 -21.6111C-130.705 -22.3628 -132.308 -22.3995 -133.623 -22.0719C-134.962 -21.7394 -134.095 -21.7468 -135.285 -21.8665C-134.583 -22.9555 -134.794 -22.5376 -134.297 -23.6339C-134.187 -23.8759 -134.084 -24.1204 -133.977 -24.3635L-134.964 -24.201L-136.61 -22.7979L-139.357 -24.8805C-140.878 -23.4481 -142.375 -23.6876 -144.448 -23.7341C-151.932 -23.8991 -160.568 -30.2802 -165.472 -35.5969C-165.434 -37.2615 -165.679 -38.8406 -165.916 -40.4808L-167.036 -41.5099L-168.167 -41.461C-169.364 -38.8358 -167.853 -35.5052 -170.787 -34.0043L-174.001 -35.8608C-173.448 -34.2537 -173.197 -34.0776 -171.875 -32.9777L-173.755 -32.7687C-178.953 -34.1657 -184.337 -35.0518 -189.595 -36.2324L-191.559 -34.9674C-186.266 -29.4308 -181.452 -23.1633 -174.324 -19.9685L-174.58 -19.2021C-177.538 -19.5859 -178.863 -21.6612 -181.975 -21.1724L-182.41 -21.1259C-185.177 -24.3452 -188.165 -27.4472 -191.51 -30.0664C-193.512 -31.6015 -195.123 -32.7039 -197.789 -32.248C-201.306 -31.6454 -204.977 -28.7305 -207.5 -26.3129C-210.389 -23.9858 -212.285 -22.0144 -213.005 -18.2635C-212.213 -16.5707 -211.484 -14.9147 -210.379 -13.3954L-209.07 -13.1926C-204.787 -11.6183 -198.699 -12.9652 -195.182 -10.8092C-201.592 -10.2556 -211.578 -9.20941 -216.623 -5.19934C-217.713 -4.33154 -219.153 -3.88544 -220.471 -3.5127C-222.196 -2.40167 -223.216 -1.63531 -224.28 0.136841C-227.342 0.628174 -230.392 1.18634 -233.428 1.81128C-233.411 0.540161 -233.454 -0.717468 -233.5 -1.98608C-235.812 -5.51099 -243.817 -5.86902 -247.786 -7.57281L-248.605 -7.92975L-249.614 -8.38068C-251.779 -9.01624 -253.757 -9.50024 -255.604 -10.8312L-255.789 -10.9168L-262.849 -13.0544C-268.146 -14.9453 -273.118 -10.5697 -278.789 -10.4365C-279.496 -10.4194 -280.18 -10.3986 -280.887 -10.4108C-290.045 -10.9485 -299.039 -11.2394 -308.207 -10.6088C-310.776 -10.4365 -313.371 -10.1725 -315.942 -10.0991L-322.724 -9.45624L-327.438 -9.46118C-332.864 -8.29883 -338.537 -7.28198 -343.854 -5.70532C-348.211 -4.961 -352.33 -3.68866 -356.543 -2.3772C-362.985 -0.611145 -369.878 0.0219116 -376.503 0.768738C-377.262 1.59491 -378.085 2.75366 -379.041 3.32196L-379.617 3.98438C-390.087 6.30536 -404.167 5.45715 -414.724 3.9599L-418.43 0.151489C-419.698 0.129517 -421.218 0.0402832 -422.414 0.507141C-425.062 1.54236 -428.044 4.39136 -430.344 6.10242C-440.433 13.608 -450.403 19.9831 -463.208 21.0953C-482.347 23.0948 -501.093 19.5516 -519.875 16.2944V13.5946V-4.14087V-7.81854V-10.9327V-17.5155V-22.5156V-24.2095V-47.4804V-74.7919V-85.617V-93.6848V-98.2045V-103.269V-109.564V-111.022V-114.934V-122.42V-156.006V-159.212V-163.429V-166.871V-170.039V-173.589V-174.839V-207.541V-210.392V-217.965V-220.083V-227.537V-244.213V-248.188V-250.93V-277.505V-284.617V-291.351V-295.457V-303.023V-305.264V-309.985V-313.01V-334.273V-337.983V-341.607V-348.769V-355.465V-479.237V-496.149V-500.315V-514.75V-522.528V-546.683Z" fill="#FEFEFD"/>
<path d="M668.01 -268.486C667.74 -270.797 667.925 -271.317 669.27 -273.156C669.372 -272.995 669.476 -272.835 669.575 -272.671C671.268 -269.871 671.676 -265.856 673.647 -263.468C674.884 -263.17 675.771 -263.194 677.033 -263.336C679.647 -260.867 681.169 -254.553 682.536 -251.152C685.881 -242.834 694.738 -224.033 701.232 -218.682C703.214 -217.047 705.377 -216.485 707.87 -216.089C707.895 -213.248 707.797 -210.352 708.115 -207.53L709.96 -202.746C711.345 -201.587 712.739 -200.441 714.14 -199.308C714.189 -197.773 714.177 -196.221 714.495 -194.712C714.556 -188.769 714.812 -182.664 715.57 -176.759C716.145 -167.713 715.411 -140.765 710.999 -133.178C710.082 -132.883 709.3 -132.657 708.335 -132.533L708.64 -102.822C708.726 -102.434 708.811 -102.048 708.897 -101.66C709.642 -98.0235 708.604 -86.6533 711.83 -84.7027C715.008 -82.7802 727.303 -83.1431 731.667 -83.2115V-58.6929V-55.4308V-50.4564V-34.7852V-30.7263V-25.3607C725.678 -25.0002 720.153 -26.4791 714.348 -27.7062C712.209 -29.9453 711.488 -31.8971 708.347 -32.9568C708.457 -24.2388 709.386 -14.4281 707.687 -5.89215C706.428 0.405884 703.495 6.40689 700.874 12.2393C692.706 30.4465 683.509 48.798 669.339 63.1797C654.587 78.1518 636.191 82.8903 617.509 90.6769C638.027 93.9476 661.602 102.229 674.328 119.722C676.756 123.061 678.315 126.551 679.385 130.526L680.291 130.968C683.02 143.221 677.842 157.43 683.574 169.039C684.125 170.156 684.234 171.114 684.372 172.338C685.78 164.546 687.404 147.964 685.438 140.477C684.527 137.01 685.066 132.426 684.824 128.804C685.565 128.795 685.298 128.663 685.698 128.976C687.511 142.744 686.545 157.215 686.725 171.103C686.776 174.986 688.285 178.559 688.474 182.4C689.178 196.829 688.509 219.311 686.389 233.424C685.548 237.524 684.28 242.678 680.668 245.301C680.51 245.416 680.333 245.503 680.164 245.603L679.224 245.318L679.135 244.761C678.31 244.37 677.479 243.979 676.677 243.542C674.646 242.437 674.024 241.554 673.412 239.353L673.089 239.931C670.488 238.509 669.149 236.466 667.407 234.15L667.664 233.452C666.109 232.08 665.486 229.871 664.729 227.986C660.833 232.98 657.413 237.067 652.106 240.611C651.413 242.667 649.628 243.751 647.74 244.639C645.616 245.637 640.347 246.828 639.238 248.72L639.226 249.724L642.175 249.355C649.108 251.757 654.76 256.55 658.921 262.528L658.883 262.83C660.01 264.548 660.565 265.746 660.939 267.774C633.903 287.061 601.757 289.263 569.594 288.59C562.361 288.053 555.076 287.454 547.893 286.445C517.619 282.171 482.772 270.996 463.674 245.681C457.507 234.086 458.513 223.497 459.477 210.884C455.236 202.52 459.575 184.092 456.131 174.121C455.796 165.16 453.159 158.943 448.367 151.484C448.442 149.37 448.456 148.025 449.644 146.232C448.602 144.177 446.682 142.176 445.264 140.333C442.803 136.314 439.713 132.514 436.942 128.693C433.883 124.508 430.693 120.444 427.461 116.391C423.938 111.387 420.591 106.153 416.851 101.316C413.228 96.6303 410.046 94.1811 404.111 93.4673C404.067 93.4489 404.026 93.4245 403.98 93.411C400.715 92.4577 397.258 92.822 393.936 93.2571C377.884 95.3605 386.289 103.406 376.393 108.84C375.36 108.829 374.817 109.07 373.992 108.34C372.32 106.863 371.938 104.457 371.763 102.336C371.427 98.2534 372.48 93.9207 375.349 90.8908C380.802 85.1306 390.433 84.1223 397.836 83.8424L397.416 82.7045L398.257 81.3405C400.623 79.8788 403.287 79.4485 405.965 78.824C409.065 71.4418 410.932 56.5395 408.632 48.8383C408.253 47.5697 407.924 46.29 407.572 45.0141C403.46 44.3541 399.588 43.0182 395.736 41.4757C401.593 40.6292 407.478 40.0812 413.39 39.8318C412.085 39.3796 411.486 38.9971 410.537 37.9924L411.124 37.1992L413.446 36.8509L411.727 36.0381C411.899 32.6709 414.081 29.5592 414.83 26.2629C414.912 25.906 414.984 25.5467 415.061 25.1873C415.322 23.2844 415.641 21.3997 415.981 19.509C420.52 3.08371 410.707 -16.2773 412.448 -33.9761C412.501 -34.0458 412.571 -34.1057 412.609 -34.1851C413.254 -35.5369 413.85 -36.6283 413.311 -38.1304C412.72 -39.7742 412.448 -40.9183 412.2 -42.6746C412.079 -44.404 411.718 -46.0638 411.371 -47.7577L411.458 -48.2258C411.939 -51.4378 411.164 -54.9309 410.762 -58.1404C410.414 -76.2657 414.297 -94.9472 413.19 -113.063C412.977 -116.54 411.747 -117.459 409.253 -119.692L403.37 -125.21C399.745 -127.627 397.584 -131.593 395.316 -135.196C394.135 -139.107 393.236 -142.85 392.841 -146.924C390.372 -172.374 403.633 -184.645 418.594 -202.86C419.684 -204.112 420.784 -205.274 421.981 -206.425C425.017 -210.187 430.32 -214.923 430.886 -219.808C430.376 -221.177 430.329 -221.321 429.154 -222.171L427.453 -222.694C428.544 -223.698 429.566 -224.8 430.612 -225.852L433.437 -228.997L433.105 -226.781L434.037 -226.79C435.396 -227.976 436.633 -229.12 438.384 -229.68C438.763 -229.801 439.146 -229.906 439.527 -230.018C437.76 -228.384 435.642 -226.74 434.298 -224.737C433.718 -223.02 433.165 -221.674 433.46 -219.825C434.634 -218.277 436.239 -217.75 437.961 -216.995L438.829 -215.422L438.905 -214.385L439.603 -214.367C440.999 -212.939 441.217 -212.8 441.573 -210.86C443.706 -213.588 446.54 -215.567 449.251 -217.687C455.643 -220.266 464.843 -230.135 472.781 -234.099C472.898 -235.042 472.919 -234.522 472.579 -235.644L469.958 -236.121L472.42 -237.623C473.889 -236.626 474.943 -235.824 476.095 -234.442C476.681 -235.817 476.334 -236.919 476.069 -238.329C475.885 -239.301 476.158 -239.306 476.687 -240.096L476.716 -240.693C479.971 -240.466 482.811 -238.954 485.071 -236.587L496.197 -232.348C501.708 -230.203 507.31 -228.336 513.005 -226.747C518.7 -225.156 524.459 -223.85 530.282 -222.829C565.271 -216.76 614.075 -217.144 643.814 -238.455C653.187 -245.173 666.008 -256.468 668.01 -268.486Z" fill="#FEFEFD"/>
<path d="M698.017 -159.386L691.924 -164.152C696.99 -163.264 701.685 -162.784 706.831 -162.766C707.565 -152.72 707.968 -142.6 708.335 -132.533L708.64 -102.822C708.726 -102.434 708.811 -102.048 708.897 -101.66C709.642 -98.0235 708.604 -86.6534 711.83 -84.7027C715.008 -82.7802 727.303 -83.1432 731.667 -83.2116V-58.6929V-55.4308V-50.4564V-34.7852V-30.7263V-25.3608C725.678 -25.0002 720.153 -26.4791 714.348 -27.7062C712.209 -29.9453 711.488 -31.8972 708.347 -32.9568C708.457 -24.2388 709.386 -14.4281 707.687 -5.8922C706.428 0.405838 703.495 6.40685 700.874 12.2392C692.706 30.4465 683.509 48.7979 669.339 63.1797C654.587 78.1517 636.191 82.8902 617.509 90.6769C638.027 93.9475 661.602 102.229 674.328 119.722C676.756 123.061 678.315 126.551 679.385 130.526L680.291 130.968C683.02 143.221 677.842 157.43 683.574 169.039C684.125 170.156 684.234 171.114 684.372 172.338C685.78 164.546 687.404 147.964 685.438 140.477C684.527 137.01 685.066 132.426 684.824 128.804C685.565 128.795 685.298 128.663 685.698 128.976C687.511 142.744 686.545 157.215 686.725 171.103C686.776 174.986 688.285 178.559 688.474 182.4C689.178 196.829 688.509 219.311 686.389 233.424C685.548 237.524 684.28 242.678 680.668 245.301C680.51 245.416 680.333 245.503 680.164 245.603L679.224 245.318L679.135 244.761C678.31 244.37 677.479 243.979 676.677 243.542C674.646 242.437 674.024 241.554 673.412 239.353L673.089 239.931C670.488 238.509 669.149 236.466 667.407 234.15L667.664 233.452C666.109 232.08 665.486 229.871 664.729 227.986C660.833 232.98 657.413 237.067 652.106 240.611C651.413 242.667 649.628 243.751 647.74 244.639C645.616 245.637 640.347 246.828 639.238 248.72L639.226 249.724L642.175 249.355C649.108 251.757 654.76 256.55 658.921 262.528L658.883 262.83C660.01 264.548 660.565 265.746 660.939 267.774C633.903 287.061 601.757 289.263 569.594 288.59C562.361 288.053 555.076 287.454 547.893 286.445C517.619 282.171 482.772 270.995 463.674 245.681C457.507 234.086 458.513 223.497 459.477 210.884C455.236 202.52 459.575 184.092 456.131 174.121C455.796 165.16 453.159 158.943 448.367 151.484C448.442 149.37 448.456 148.025 449.644 146.232C448.602 144.177 446.682 142.176 445.264 140.333C442.803 136.314 439.713 132.514 436.942 128.693C433.883 124.508 430.693 120.444 427.461 116.391C423.938 111.387 420.591 106.153 416.851 101.316C413.228 96.6303 410.046 94.181 404.111 93.4672C404.067 93.4489 404.026 93.4244 403.98 93.411C400.715 92.4577 397.258 92.8219 393.936 93.257C377.884 95.3604 386.289 103.406 376.393 108.84C375.36 108.829 374.817 109.07 373.992 108.34C372.32 106.863 371.938 104.457 371.763 102.336C371.427 98.2534 372.48 93.9206 375.349 90.8908C380.802 85.1305 390.433 84.1222 397.836 83.8423L397.416 82.7044L398.257 81.3405C400.623 79.8787 403.287 79.4485 405.965 78.8239C409.065 71.4418 410.932 56.5394 408.632 48.8383C408.253 47.5696 407.924 46.29 407.572 45.014C403.46 44.354 399.588 43.0181 395.736 41.4757C401.593 40.6291 407.478 40.0811 413.39 39.8318C415.753 40.0017 418.18 40.0677 420.509 40.5077L426.735 40.6727C466.711 40.3281 506.818 40.8328 546.801 41.1983C556.285 41.2838 565.823 41.8949 575.289 41.8668C576.414 40.9465 576.357 41.3437 576.541 39.7328C579.464 36.3693 578.381 28.0241 578.218 23.6547L578.292 21.2262C579.927 15.0638 579.158 11.9973 582.564 5.69066C582.447 -12.0077 582.943 -29.6887 584.051 -47.352C583.315 -50.1631 581.93 -51.6884 580.478 -54.0913C580.367 -54.2746 580.264 -54.4628 580.157 -54.6486C583.495 -53.265 586.785 -50.5921 588.075 -47.1015C590.747 -39.8721 590.671 38.6854 588.882 47.4596C585.945 49.2538 557.861 47.5317 552.534 47.4572C531.88 47.3341 511.229 47.5048 490.58 47.9693C474.923 48.2479 459.487 48.7209 443.849 47.6381C440.296 51.1397 435.981 56.609 431.572 58.7222C431.122 69.4875 429.067 84.1515 433.564 94.0771C427.361 93.4171 421.218 92.1424 415.085 91.0192C422.531 98.4099 427.642 107.441 433.681 115.942C442.159 127.876 450.911 139.606 459.938 151.131C459.621 146.258 459.245 141.358 459.227 136.474C459.192 127.546 460.345 119.912 466.95 113.318C498.318 82.0029 543.657 85.1086 584.598 84.6796C600.069 84.517 628.433 71.0665 641.866 62.8313C651.441 56.9623 661.826 49.2037 669.582 41.1347C680.703 29.5641 690.196 13.03 694.196 -2.54337C699.981 -25.0577 696.802 -49.9639 697.16 -73.0709C697.517 -96.2232 699.043 -119.31 698.497 -142.474C700.715 -142.974 701.723 -142.967 703.397 -144.557C703.751 -145.577 704.179 -146.588 704.033 -147.697C703.812 -149.365 702.603 -150.984 701.422 -152.095L699.994 -151.433C699.491 -152.511 699.505 -152.2 699.424 -153.17C699.241 -155.349 699.465 -157.645 698.017 -159.386Z" fill="url(#paint0_linear_492_1899)"/>
<path d="M407.572 45.0146C410.17 45.7174 414.53 46.4275 416.072 48.8205C416.182 48.9917 416.316 49.1701 416.331 49.3718C416.622 53.2657 415.19 58.6422 414.813 62.6437C414.112 70.098 413.961 77.6781 413.692 85.1617C408.445 84.6814 403.1 83.9493 397.835 83.843L397.415 82.7051L398.256 81.3411C400.622 79.8794 403.287 79.4491 405.964 78.8246C409.064 71.4424 410.931 56.54 408.631 48.8389C408.252 47.5702 407.924 46.2906 407.572 45.0146Z" fill="#8FFCA2"/>
<path d="M-15.5346 -22.9677C-9.04836 -23.9431 -2.42641 -25.1139 4.13318 -25.3706C6.70593 -24.4833 8.27523 -24.6006 10.9115 -25.1897L11.4664 -24.9551L10.7478 -22.8345C11.9235 -22.5681 12.9795 -22.507 14.1834 -22.4874C16.1683 -20.5575 19.0698 -17.095 21.9737 -16.7418C24.3534 -16.4534 28.1691 -17.4788 30.6221 -17.7758C38.9319 -18.7817 52.144 -20.7775 60.0895 -20.5808C61.1688 -19.02 61.1162 -17.5986 61.2042 -15.7775C63.6547 -16.5548 65.84 -17.3725 68.4507 -17.243L61.2042 -13.4834C54.526 -10.9057 47.8565 -8.35748 41.3176 -5.43884L39.7667 -4.59552C19.8312 2.36374 -5.25707 -3.60065 -26.2399 -2.56422C-27.742 -3.44543 -29.0461 -4.66764 -30.3796 -5.78229L-30.9992 -8.62148L-30.7682 -9.33769C-31.2583 -10.0955 -31.7888 -11.0818 -32.4268 -11.7112C-33.7382 -13.0056 -34.6988 -12.8417 -36.4002 -12.986C-38.7932 -13.1253 -40.2196 -13.3722 -42.3242 -14.5468C-40.1267 -16.4143 -38.0489 -17.4886 -35.3246 -18.4114C-28.9569 -20.6505 -22.1455 -21.6759 -15.5346 -22.9677Z" fill="#FC8910"/>
<path d="M-30.7685 -9.33702C-16.4405 -14.2894 1.87915 -12.4219 16.9343 -12.043L18.3447 -9.88576C23.2311 -9.55455 37.4478 -10.1889 40.6476 -6.30224C40.8798 -6.01991 41.0937 -5.72539 41.3174 -5.43817L39.7664 -4.59485C19.831 2.36441 -5.25734 -3.59998 -26.2402 -2.56355C-27.7423 -3.44476 -29.0464 -4.66697 -30.3798 -5.78162L-30.9995 -8.62081L-30.7685 -9.33702Z" fill="#10650B"/>
<path d="M-67.8 -22.3042C-67.6277 -22.094 -67.4492 -21.8899 -67.283 -21.6747C-66.3101 -20.411 -66.9506 -21.3154 -66.359 -20.0663C-65.3336 -17.9006 -62.9613 -16.2934 -61.3932 -14.4931C-60.5877 -13.145 -59.8483 -11.9386 -58.7508 -10.7971L-62.4333 -10.2654L-58.8656 -8.56166C-55.6561 -6.46435 -51.7939 -6.76379 -48.1004 -6.81757C-47.0236 -6.2248 -46.1131 -5.74933 -45.2735 -4.83879C-44.1588 -4.66157 -43.5844 -4.80336 -42.526 -5.17858C-40.3577 -4.87792 -38.951 -4.5235 -37.224 -3.09596C-40.8747 -2.0962 -44.8237 -3.66672 -48.0845 -2.2404C-45.2967 -1.73563 -43.0112 -1.64885 -40.9921 0.573126C-37.455 0.94101 -29.7966 1.10481 -27.2263 3.63723C-26.9391 3.92078 -26.6372 4.19083 -26.3427 4.46705L-26.4246 3.37322C-23.2053 2.18524 -19.1732 1.85034 -16.0394 3.40254C-9.7304 6.52651 -7.77733 12.277 0.146248 12.3857L1.14481 13.4406C0.409042 14.5063 0.0631638 14.4782 -1.17738 14.7116C-4.23656 15.2861 -7.60377 15.071 -10.7204 15.2421C-3.91392 15.6173 5.25999 14.1274 11.5654 15.4865C6.86475 16.5742 0.879593 16.0096 -3.99702 16.2467C-20.0935 15.9497 -63.7141 18.3489 -77.1242 11.8334C-83.003 5.1002 -82.772 -2.31006 -84.2998 -10.6846C-81.9593 -10.5209 -77.2073 -10.9841 -75.3239 -9.86086L-73.6446 -12.2674C-73.3794 -12.5094 -73.0677 -12.7099 -72.8477 -12.9946C-71.1965 -15.1347 -68.2351 -19.6728 -67.8 -22.3042Z" fill="#FCB334"/>
<path d="M39.7672 -4.5955C39.8246 -3.26574 39.8918 -2.0399 39.7073 -0.717468C40.7865 0.469297 41.5076 0.217526 43.0806 0.310414C51.3268 0.798075 80.7075 -2.86976 88.1214 -6.32617C91.1451 -4.89374 95.2175 -3.49066 96.639 -0.211472C97.1046 0.860405 96.8932 2.19139 96.3554 3.20704C95.8348 4.1897 95.3324 4.73974 94.4854 5.45228C92.8281 5.2604 92.0887 5.18826 90.5536 5.82259C88.6494 6.60847 75.2503 6.16726 71.2366 6.64025C51.405 8.98323 31.4464 14.6005 11.5659 15.4866C5.26054 14.1275 -3.91338 15.6174 -10.7199 15.2422C-7.60323 15.0711 -4.23602 15.2862 -1.17683 14.7117C0.0637093 14.4783 0.409588 14.5064 1.14536 13.4407L0.14679 12.3858C-7.77679 12.2771 -9.72985 6.5266 -16.0389 3.40264C-19.1726 1.85043 -23.2047 2.18533 -26.424 3.37332L-26.3421 4.46715C-26.6367 4.19093 -26.9386 3.92088 -27.2258 3.63732C-29.7961 1.10491 -37.4545 0.941107 -40.9915 0.573222C-43.0106 -1.64875 -45.2961 -1.73553 -48.084 -2.24031C-44.8231 -3.66662 -40.8742 -2.0961 -37.2235 -3.09587C-33.9919 -1.76733 -29.625 -1.74044 -26.2395 -2.56421C-5.25658 -3.60064 19.8317 2.36375 39.7672 -4.5955Z" fill="url(#paint1_linear_492_1899)"/>
<path d="M-208.955 315.43L-209.697 315.284C-213.972 314.489 -218.475 314.929 -222.734 314C-218.379 312.473 -180.061 315.039 -171.161 314.893C-168.414 314.844 -164.3 315.1 -161.767 314.22L-162.674 314.074C-152.229 313.157 -141.637 313.768 -131.155 313.683C-116.367 313.536 -100.808 312.082 -86.2281 314.538C-84.4082 314.856 -82.8304 315.699 -81.3625 314.233L-81.3307 314.343C-80.0083 313.634 -79.7712 313.597 -78.2654 313.646C-78.4194 314.33 -78.5331 314.819 -78.8557 315.443C-72.906 316.249 -59.8479 314.77 -52.6638 314.758L27.2014 314.868C35.6224 314.832 46.7751 313.108 54.8014 315.479C58.7059 315.569 62.6108 315.601 66.5162 315.577L60.9368 316.75H-52.8911H-184.659H-227.991L-228.058 315.846L-227.218 315.064L-224.719 315.883C-219.488 315.125 -214.198 315.785 -208.955 315.43Z" fill="#7CFE3C"/>
<path d="M405.842 -29.7568C407.723 -31.1574 409.524 -32.6547 411.336 -34.1421L412.448 -33.9759C410.708 -16.2771 420.521 3.08391 415.982 19.5092C415.642 21.3999 415.323 23.2846 415.061 25.1875C413.988 25.6092 413.52 25.6166 412.397 25.6093C409.208 22.0551 411.231 6.91552 408.702 0.715252C407.26 -5.41901 404.648 -13.2876 401.186 -18.5137C400.741 -19.1872 401.026 -18.9048 399.967 -19.1187C399.333 -17.0788 400.165 -14.786 400.642 -12.7522L400.077 -12.4956C399.071 -15.2296 398.955 -18.4709 397.602 -20.9875C394.69 -19.6601 388.026 -17.7559 384.855 -17.9955C380.961 -18.29 359.917 -24.6419 357.894 -27.596C357.328 -28.4222 357.559 -28.2547 357.818 -29.3938C360.398 -28.038 363.096 -26.9852 365.913 -26.2356C377.999 -23.1349 394.9 -23.3487 405.842 -29.7568Z" fill="#8FFCA2"/>
<path d="M73.0109 315.443L73.3995 314.831C73.1942 312.656 72.1627 311.715 70.9062 309.967C75.3722 305.702 90.4139 305.812 96.3502 305.604C103.309 305.359 114.449 304.259 120.723 306.924C122.857 307.828 124.638 309.71 126.319 311.287L127.639 314.55C111.283 313.291 93.0698 314.514 76.6775 315.65L73.0109 315.443Z" fill="#26C634"/>
<path d="M73.0107 315.442L76.6773 315.65C73.8015 315.98 70.8059 316.151 67.9765 316.75H60.9365L66.5159 315.577L73.0107 315.442Z" fill="#092C0F"/>
<path d="M11.5653 15.4864C31.4458 14.6003 51.4044 8.98308 71.236 6.64011C75.2497 6.16711 88.6488 6.60832 90.553 5.82244C92.0881 5.18812 92.8275 5.26025 94.4848 5.45214C92.1297 6.78557 89.904 7.51033 87.2286 7.9161C78.3443 9.26542 69.2694 8.79977 60.3351 10.0256C47.8722 11.7355 35.5328 15.1088 23.0651 16.3835C18.3302 16.8675 1.72164 18.3355 -2.53775 17.0118C-3.34074 16.7625 -3.40308 16.6634 -3.99707 16.2466C0.879543 16.0095 6.8647 16.5742 11.5653 15.4864Z" fill="#D7BB40"/>
<path d="M384.428 304.43L386.569 303.245L387.943 306.251L393.334 316.75H379.341L376.915 314.049C376.985 312.326 377.155 311.128 377.74 309.466C377.589 308.256 377.303 307.425 376.878 306.288C377.436 305.347 378.348 304.503 379.085 303.685C380.988 304.296 382.434 304.455 384.428 304.43Z" fill="#1DAD23"/>
<path d="M387.942 306.251L393.333 316.75H379.34L376.914 314.049C379.593 314.672 382.759 314.33 385.511 314.294C386.009 311.507 386.215 308.574 387.942 306.251Z" fill="#044506"/>
<path d="M379.085 303.685C380.988 304.296 382.434 304.455 384.428 304.43C383.472 306.997 381.103 310.211 378.666 311.519L377.957 311.006L377.74 309.466C377.589 308.256 377.303 307.425 376.878 306.288C377.436 305.347 378.348 304.503 379.085 303.685Z" fill="#2ABF39"/>
<path d="M397.261 316.75C401.188 312.753 403.598 309.075 406.113 304.063C408.471 307.583 409.966 310.712 412.926 313.89L413.69 314.697L412.548 314.648C411.338 314.587 410.221 314.391 409.037 314.122C407.88 314.88 407.568 315.516 406.985 316.75H397.261Z" fill="#126B0D"/>
<path d="M126.319 311.287C128.081 310.346 129.03 310.089 130.975 310.688C134.415 311.739 137.012 314.453 140.435 315.504C136.661 315.565 131.01 316.249 127.639 314.551L126.319 311.287Z" fill="#9AFD79"/>
<path d="M376.877 306.288C377.303 307.425 377.589 308.256 377.739 309.466C377.155 311.128 376.985 312.326 376.914 314.049L379.34 316.75H370.797C372.671 313.12 374.531 309.637 376.877 306.288Z" fill="#053C0A"/>
<path d="M379.085 303.685C380.382 302.035 381.46 300.434 383.358 299.432C384.305 299.639 384.697 299.481 385.274 300.324C385.913 301.265 386.208 302.182 386.569 303.245L384.427 304.43C382.434 304.455 380.988 304.296 379.085 303.685Z" fill="#47E623"/>
<path d="M356.218 316.091C360.343 315.956 364.988 315.492 368.973 316.751H356.348L356.218 316.091Z" fill="#169622"/>
<path d="M274.881 39.1861C276.967 39.2704 279.295 38.7693 281.38 38.5273L281.297 39.4501C272.414 40.8789 262.511 41.1147 254.183 42.574L254.315 42.5533L253.867 42.9322C261.114 43.2707 280.265 42.068 285.825 44.8571L287.436 44.6567C295.169 44.4929 313.53 42.0021 319.246 46.5939C328.918 46.7772 338.472 47.832 345.683 55.1164C350.136 59.6153 351.824 65.4024 352.895 71.4658C355.52 86.3352 354.512 102.36 355.005 117.431C356.213 154.384 357.253 191.218 356.25 228.196C355.902 241.036 356.986 265.004 347.232 274.607C343.66 278.123 339.628 278.748 334.896 279.356L338.941 279.967L332.693 280.897C334.082 281.166 335.229 281.168 336.638 281.073L337.105 281.391L336.955 281.876C337.289 281.974 337.62 282.079 337.955 282.171C341.918 283.254 347.245 282.689 351.405 282.815L350.288 283.073L350.061 283.92L351.115 285.379L350.345 285.459L352.178 286.432C345.07 287.734 336.747 285.718 329.523 285.291C325.419 285.049 321.269 285.279 317.177 284.993C304.778 285.536 292.432 286.44 280.016 286.655C254.757 287.093 229.48 286.54 204.23 287.238L145.924 289.03C137.245 289.226 126.225 290.643 117.779 288.676L117.356 288.126C121.145 286.614 125.971 287.906 130.056 286.919L106.206 286.724C100.875 287.095 95.5475 287.06 90.2228 286.617C84.8915 286.733 76.16 282.041 71.8444 279.087C66.2638 275.267 62.4774 269.999 59.0833 264.259C41.5031 234.529 45.0108 198.946 38.8118 166.123L38.6981 165.542C38.4292 167.589 38.4268 169.463 38.5246 171.523L38.0222 171.548C37.8352 165.884 37.1264 161.763 35.3395 156.382C34.7638 158.584 34.1515 160.344 32.9293 162.277C32.8218 162.446 32.7105 162.612 32.6017 162.78C34.088 165.204 32.9977 168.965 32.5565 171.665C32.5418 171.573 32.548 171.478 32.5138 171.392C29.82 164.77 30.2429 106.959 31.745 97.6896C32.8987 102.046 31.4345 107.609 32.1544 112.249C33.1847 113.322 34.3104 114.288 34.6954 115.776C34.7577 116.018 34.7602 116.272 34.7919 116.52L35.4641 116.641C34.1894 110.228 35.1928 102.701 35.3395 96.1324C35.359 95.261 35.4189 94.953 35.7734 94.2246C35.8638 94.04 35.9665 93.8604 36.063 93.6782L35.8137 93.7528C36.8245 97.7935 35.7538 102.193 36.7768 106.357C36.8183 106.525 36.8673 106.69 36.9113 106.857C38.6859 92.9083 37.3146 78.5901 39.1491 64.5286C39.5097 61.1871 40.5082 57.2418 41.9321 54.207C42.6483 52.6817 43.3046 51.842 44.9094 51.3238L46.4017 52.6829C47.3379 51.6612 48.2692 50.5624 49.3863 49.7289C57.8147 43.4455 109.407 43.9649 121.548 45.302C124.605 43.1411 127.27 43.6862 130.82 44.2973C139.026 45.7078 147.143 48.14 155.275 49.9623L156.694 53.1474L160.747 53.7426L162.232 51.5316C166.716 51.6697 171.342 52.9824 175.74 53.8905L185.672 53.9174C198.185 51.9154 210.652 50.6883 223.114 48.2023L225.52 48.1046C226.514 47.128 227.039 46.2627 227.666 45.0221C235.449 45.9889 244.348 42.8625 252.117 41.8383C259.693 40.8385 267.336 40.4267 274.881 39.1861Z" fill="#020301"/>
<path d="M141.759 283.24C176.138 280.714 209.992 277.643 244.53 277.499C263.099 277.422 281.749 277.357 300.308 277.95C311.803 278.317 323.409 279.553 334.895 279.357L338.941 279.968L332.693 280.898C334.081 281.167 335.229 281.168 336.638 281.074L337.105 281.392L336.955 281.877C337.288 281.975 337.619 282.08 337.954 282.172C341.918 283.255 347.244 282.69 351.405 282.816L350.288 283.074L350.06 283.921L351.115 285.38L350.345 285.459L352.177 286.432C345.07 287.735 336.747 285.719 329.522 285.292C325.418 285.05 321.269 285.28 317.177 284.994C304.777 285.537 292.432 286.441 280.016 286.656C254.756 287.094 229.48 286.541 204.23 287.239L145.923 289.031C137.244 289.226 126.225 290.644 117.778 288.676L117.355 288.126C121.144 286.614 125.971 287.906 130.056 286.92C132.192 286.922 134.218 286.766 136.334 286.479L134.948 285.859L134.651 283.517C136.996 283.203 139.396 283.268 141.759 283.24Z" fill="#42D21E"/>
<path d="M141.759 283.24C176.138 280.714 209.992 277.643 244.53 277.499C263.099 277.422 281.749 277.357 300.308 277.95C311.803 278.317 323.409 279.553 334.895 279.357L338.941 279.968L332.693 280.898C334.081 281.167 335.229 281.168 336.638 281.074L337.105 281.392L336.955 281.877C324.235 281.284 307.142 280.913 294.606 282.427C262.172 282.692 229.665 282.607 197.245 283.531C186.931 283.833 176.625 284.302 166.327 284.938C160.846 285.243 154.999 285.968 149.537 285.667C146.801 284.729 143.951 285.349 141.759 283.24Z" fill="#B7FAC7"/>
<path d="M294.605 282.426C307.141 280.912 324.234 281.284 336.953 281.876C337.287 281.974 337.618 282.079 337.953 282.171C341.917 283.254 347.243 282.689 351.403 282.815L350.286 283.073L350.059 283.92L351.114 285.379L350.344 285.459L352.176 286.432C345.069 287.734 336.746 285.718 329.521 285.291C325.417 285.049 321.267 285.279 317.175 284.993C324.346 281.439 332.071 285.813 339.163 283.537C333.648 281.597 303.19 282.783 294.605 282.426Z" fill="#FAF6E0"/>
<path d="M134.65 283.518C136.996 283.204 139.395 283.268 141.759 283.24C143.95 285.35 146.8 284.729 149.537 285.668C145.143 286.221 140.757 286.341 136.333 286.479L134.947 285.859L134.65 283.518Z" fill="#93FDCB"/>
<path d="M39.1491 64.5293C40.0438 63.0908 40.419 61.9578 41.9614 61.1719L43.2875 62.2205C41.0301 75.6159 41.6962 89.7801 41.6779 103.338C41.6559 119.981 41.2855 136.768 42.1741 153.392C42.9147 167.271 44.7651 181.192 46.2587 195.007C47.6667 208.026 48.884 221.32 51.8919 234.088C54.6406 245.757 59.4488 259.354 66.6024 269.087C70.852 274.868 77.3395 278.548 83.8783 281.223C85.5246 281.895 87.8101 282.4 89.201 283.465C89.476 283.626 89.7485 283.792 90.0272 283.948C91.5379 284.793 93.3553 285.167 95.048 285.481C93.4543 285.956 91.8495 286.284 90.2228 286.618C84.8915 286.734 76.16 282.042 71.8444 279.088C66.2638 275.267 62.4774 270 59.0833 264.26C41.5031 234.53 45.0108 198.947 38.8118 166.124L38.6981 165.542C38.4292 167.59 38.4268 169.463 38.5246 171.524L38.0222 171.548C37.8352 165.885 37.1264 161.763 35.3395 156.383C34.7638 158.584 34.1515 160.344 32.9293 162.278C32.8218 162.447 32.7105 162.613 32.6017 162.78C34.088 165.205 32.9977 168.966 32.5565 171.666C32.5418 171.574 32.548 171.479 32.5138 171.393C29.82 164.771 30.2429 106.96 31.745 97.6903C32.8987 102.046 31.4345 107.61 32.1544 112.249C33.1847 113.322 34.3104 114.289 34.6954 115.776C34.7577 116.018 34.7602 116.273 34.7919 116.521L35.4641 116.642C34.1894 110.229 35.1928 102.701 35.3395 96.1331C35.359 95.2617 35.4189 94.9537 35.7734 94.2253C35.8638 94.0407 35.9665 93.861 36.063 93.6789L35.8137 93.7535C36.8245 97.7942 35.7538 102.194 36.7768 106.358C36.8183 106.526 36.8673 106.691 36.9113 106.858C38.6859 92.909 37.3146 78.5908 39.1491 64.5293Z" fill="url(#paint2_linear_492_1899)"/>
<path d="M38.6981 165.542C38.4292 167.589 38.4268 169.463 38.5246 171.524L38.0222 171.548C37.8352 165.884 37.1264 161.763 35.3395 156.383C34.7638 158.584 34.1515 160.344 32.9293 162.278C32.8218 162.446 32.7105 162.613 32.6017 162.78C34.088 165.205 32.9977 168.966 32.5565 171.665C32.5418 171.574 32.548 171.478 32.5138 171.393C29.82 164.771 30.2429 106.959 31.745 97.6901C32.8987 102.046 31.4345 107.609 32.1544 112.249C33.1847 113.322 34.3104 114.289 34.6954 115.776C34.7577 116.018 34.7602 116.272 34.7919 116.521L35.4641 116.642C34.1894 110.229 35.1928 102.701 35.3395 96.1329C35.359 95.2615 35.4189 94.9535 35.7734 94.2251C35.8638 94.0405 35.9665 93.8608 36.063 93.6787L35.8137 93.7533C36.8245 97.7939 35.7538 102.194 36.7768 106.358C36.8183 106.525 36.8673 106.69 36.9113 106.858C37.064 126.489 38.164 145.953 38.6981 165.542Z" fill="#FAF6E0"/>
<path d="M274.881 39.1861C276.966 39.2704 279.294 38.7693 281.379 38.5273L281.296 39.4501C272.413 40.8789 262.511 41.1147 254.183 42.574L254.315 42.5533L253.866 42.9322C261.114 43.2707 280.265 42.068 285.825 44.8571L287.435 44.6567L286.58 46.3825C288.389 47.6536 292.054 46.9569 294.356 47.3468L293.595 47.403C275.952 48.6081 258.283 47.6401 240.589 49.3756C225.906 50.8166 203.778 56.2078 190.346 55.89C186.211 55.2105 182.174 56.2273 178.198 55.593C177.859 55.5392 177.523 55.472 177.186 55.4122C178.145 55.8705 178.7 55.6126 179.736 55.4903L178.76 55.4781C181.177 55.56 182.752 55.1787 184.98 54.2241C185.212 54.1251 185.441 54.02 185.672 53.9174C198.185 51.9154 210.651 50.6883 223.113 48.2023L225.52 48.1046C226.513 47.128 227.039 46.2627 227.666 45.0221C235.449 45.9889 244.348 42.8625 252.116 41.8383C259.692 40.8385 267.335 40.4267 274.881 39.1861Z" fill="#CFF5CF"/>
<path d="M274.881 39.1861C276.966 39.2704 279.294 38.7693 281.379 38.5273L281.296 39.4501C272.413 40.8789 262.511 41.1147 254.183 42.574L254.315 42.5533L253.866 42.9322C261.114 43.2707 280.265 42.068 285.825 44.8571C266.985 46.116 248.16 42.7721 229.593 47.8723C228.241 48.2439 226.903 48.1889 225.52 48.1046C226.513 47.128 227.039 46.2627 227.666 45.0221C235.449 45.9889 244.348 42.8625 252.116 41.8383C259.692 40.8385 267.335 40.4267 274.881 39.1861Z" fill="#BAF5B1"/>
<path d="M121.548 45.3026C124.605 43.1417 127.27 43.6868 130.82 44.2979C139.025 45.7083 147.143 48.1405 155.275 49.9629L156.694 53.148C144.769 51.3195 133.387 47.4842 121.548 45.3026Z" fill="#BAF5B1"/>
<path d="M287.435 44.6565C295.168 44.4927 313.529 42.0019 319.245 46.5937C311.252 46.7098 302.229 48.2401 294.355 47.3466C292.053 46.9568 288.388 47.6534 286.579 46.3823L287.435 44.6565Z" fill="#B7FAC7"/>
<path d="M111.311 284.307C119.067 284.373 126.898 283.839 134.65 283.517L134.947 285.859L136.333 286.478C134.218 286.766 132.191 286.922 130.055 286.92L106.205 286.724C107.602 285.518 109.61 284.975 111.311 284.307Z" fill="#8FFCA2"/>
<path d="M89.2002 283.464C96.5848 283.986 103.905 284.317 111.311 284.306C109.61 284.975 107.602 285.517 106.205 286.723C100.874 287.095 95.5467 287.06 90.222 286.617C91.8487 286.284 93.4535 285.955 95.0472 285.481C93.3545 285.166 91.5371 284.792 90.0264 283.947C89.7477 283.791 89.4752 283.625 89.2002 283.464Z" fill="#BAF5B1"/>
<path d="M39.1484 64.5285C39.509 61.187 40.5075 57.2417 41.9314 54.2069C42.6476 52.6816 43.304 51.8419 44.9087 51.3237L46.401 52.6828C45.048 55.8496 44.0751 58.8684 43.2868 62.2197L41.9607 61.1711C40.4183 61.957 40.0431 63.09 39.1484 64.5285Z" fill="#BAF5B1"/>
<path d="M169.979 55.5701C170.12 55.3733 170.236 55.1558 170.404 54.981C171.847 53.4716 173.788 53.9373 175.739 53.8908L185.672 53.9177C185.441 54.0203 185.212 54.1254 184.98 54.2244C182.752 55.179 181.176 55.5603 178.76 55.4784L179.735 55.4906C178.7 55.6129 178.145 55.8708 177.186 55.4125C177.523 55.4724 177.859 55.5395 178.198 55.5933C182.174 56.2276 186.211 55.2108 190.345 55.8903C183.983 57.1578 176.33 56.763 169.979 55.5701Z" fill="#BAF5B1"/>
<path d="M162.231 51.5317C166.715 51.6698 171.341 52.9826 175.739 53.8907C173.788 53.9371 171.847 53.4714 170.404 54.9808C170.237 55.1556 170.12 55.3732 169.979 55.5699C167.02 55.3377 163.679 54.3404 160.746 53.7427L162.231 51.5317Z" fill="#9AFD79"/>
<path d="M92.4047 48.2179C121.579 45.5242 149.053 58.68 177.853 59.5563C202.137 60.2958 226.125 52.8806 250.259 50.908C273.679 48.9928 297.321 51.2038 320.833 49.9926C328.806 49.5819 333.862 51.3504 339.699 56.711C348.752 65.0257 347.564 77.8785 348.08 89.2389C349.505 120.597 349.042 152.131 349.502 183.516C349.718 198.277 349.786 213.039 349.707 227.802C349.677 237.082 350.259 247.282 348.597 256.403C347.593 261.914 344.936 267.322 341.026 271.358C338.769 273.689 335.385 274.989 332.233 275.49C322.928 276.971 301.607 274.592 290.931 274.41C255.535 272.827 219.077 273.278 183.76 275.803C157.36 277.69 129.666 282.862 103.19 280.539C94.3896 279.767 82.1602 277.24 76.4268 269.94C75.2352 268.423 74.6558 266.713 74.9858 264.775C75.8267 259.831 80.9245 256.1 84.7977 253.461C81.7349 252.719 77.8287 251.455 74.7292 252.586C71.3045 253.834 69.954 257.311 68.5313 260.364C63.4873 253.666 60.1947 246.155 57.9947 238.082C54.5872 225.579 53.7426 211.859 52.4703 198.987L48.3771 158.587C46.8885 143.44 43.3563 65.9876 52.2857 55.913C59.2144 48.0933 82.0172 48.8351 92.4047 48.2179Z" fill="#FEFEFD"/>
<path d="M250.488 65.2354C261.86 64.7062 291.267 65.079 301.087 68.836C303.079 69.5975 304.509 71.135 305.701 72.8559C309.809 78.7848 310.645 86.4578 316.541 91.3112C322.286 96.0411 328.423 95.5254 335.293 94.7237C332.558 129.288 333.605 164.207 335.36 198.813C335.838 208.244 336.774 217.638 337.178 227.075C331.606 227.924 326.248 229.703 322.313 233.949C316.278 240.463 316.613 249.211 316.769 257.468C305.639 258.027 294.177 256.421 283.027 256.06C253.898 255.127 224.785 255.473 195.688 257.098C184.145 257.787 171.492 258.049 160.297 261.072C153.743 262.842 147.954 267.235 141.5 269.52L140.621 269.826C134.146 271.453 127.004 272.941 120.288 272.55C106.284 271.732 96.3135 266.489 87.1225 256.099C83.4656 251.966 70.4112 234.505 68.8737 230.348C65.7705 221.96 65.8512 212.586 64.9748 203.78C61.3766 167.645 58.458 130.021 60.5883 93.7251C72.2139 91.3393 80.7927 88.0003 86.7485 76.9429C88.2738 74.1111 89.7001 70.5434 91.8512 68.1907C94.0035 65.8343 96.4736 65.5287 99.5169 65.3417C111.779 64.584 124.018 67.6651 136.006 69.7441C147.145 71.7844 158.372 73.0343 169.688 73.4938C176.202 73.7049 182.712 73.6214 189.218 73.2433C195.725 72.8644 202.201 72.193 208.647 71.2291C222.642 69.1587 236.324 66.1509 250.488 65.2354Z" fill="#020301"/>
<path d="M121.27 70.7088C143.352 73.8328 161.638 77.255 184.135 76.8785C216.218 76.342 246.783 65.2358 279.214 68.9855C281.599 69.2617 285.207 69.3412 287.402 70.2774C293.227 70.7968 299.292 70.5744 303.207 75.682C305.734 78.9783 307.493 82.9614 309.793 86.4288C316.674 94.1935 321.055 96.9802 331.519 97.8809C328.748 125.785 328.779 152.789 330.002 180.78C330.534 192.96 330.876 205.477 332.686 217.539C332.983 219.516 334.257 223.063 332.716 224.518C325.954 226.54 320.48 228.998 317.065 235.646C314.004 241.608 313.776 248.515 313.679 255.069C308.829 254.822 303.953 254.453 299.099 254.374C280.72 253.881 262.338 253.669 243.953 253.737C229.84 253.88 215.722 254.485 201.608 254.341C190.845 254.913 180.128 255.519 169.393 256.507C169.022 255.448 169.424 255.029 169.777 253.997C168.738 253.649 167.834 253.059 166.886 252.516C177.192 241.494 175.371 229.602 176.524 215.834C174.619 202.313 169.663 194.096 160.786 183.975C153.177 179.301 146.913 173.82 138.014 171.474C128.519 168.969 115.791 169.81 106.668 173.416C103.242 174.77 99.9167 177.05 96.7231 178.891C85.9346 187.662 78.1663 196.133 76.7607 210.628C76.3244 215.126 76.4687 219.745 76.5493 224.26L75.9211 222.4L75.1181 224.641C74.4581 224.262 73.8959 223.96 73.3361 223.44C72.4158 220.201 72.4121 216.1 72.065 212.726C71.5615 209.065 71.2413 205.39 70.9015 201.712C69.2821 197.756 69.5045 190.645 69.1073 186.309C66.3296 156.856 64.8528 127.339 64.6768 97.7563C68.2798 94.4453 75.574 93.1034 80.1915 90.8826C81.2389 89.5162 83.2189 88.3673 84.4741 87.0363C88.2202 83.0629 90.7575 78.8768 93.2325 74.0467C93.8167 72.7829 94.4546 71.4141 95.5265 70.4803C100.629 66.0351 114.963 69.6797 121.27 70.7088Z" fill="#278C5A"/>
<path d="M81.1838 189.44C84.2222 186.774 86.6947 183.433 89.7344 180.721C91.564 179.088 93.5868 177.026 96.1302 177.18L96.723 178.891C85.9345 187.662 78.1661 196.133 76.7606 210.628C76.3243 215.126 76.4685 219.745 76.5492 224.26L75.921 222.399L75.118 224.641C74.458 224.262 73.8957 223.96 73.336 223.439C72.4157 220.201 72.412 216.1 72.0649 212.726C71.5614 209.065 71.2411 205.39 70.9014 201.712C70.9808 201.874 71.0615 202.034 71.1385 202.197C71.9366 203.88 72.2275 205.121 72.4022 206.971L73.1099 207.361L74.5032 206.038C77.0515 200.719 78.5952 194.86 81.1838 189.44Z" fill="#2EA96D"/>
<path d="M72.0649 212.726L74.7281 212.352C76.9415 214.935 75.8746 219.194 75.921 222.4L75.118 224.641C74.458 224.263 73.8958 223.961 73.336 223.44C72.4157 220.201 72.412 216.101 72.0649 212.726Z" fill="#56CA95"/>
<path d="M160.787 183.974L161.63 183.408C163.214 184.704 164.736 187.212 166.664 187.33C165.985 185.359 162.33 183.648 162.17 182.113C164.915 182.314 165.99 183.535 167.741 185.578C175.314 194.416 180.799 206.411 180.101 218.245C180.05 219.107 179.969 219.354 179.797 220.101C178.977 217.29 179.208 214.569 178.588 211.785C177.52 214.691 177.414 217.827 177.117 220.889C177.026 219.264 177.165 217.329 176.524 215.833C174.62 202.312 169.664 194.095 160.787 183.974Z" fill="#40C59D"/>
<path d="M310.439 252.431C310.546 244.933 312.589 236.182 317.782 230.532C320.761 227.289 327.063 223.353 331.587 223.178L332.716 224.517C325.955 226.54 320.48 228.998 317.065 235.645C314.004 241.607 313.777 248.514 313.679 255.069C308.829 254.822 303.954 254.453 299.099 254.373L297.979 253.415L298.555 252.529C302.386 251.795 306.545 252.271 310.439 252.431Z" fill="#2EA96D"/>
<path d="M169.777 253.997C178.455 251.389 198.665 251.545 208.203 251.822C207.472 251.917 206.415 251.951 205.719 252.13C205.12 252.284 204.537 252.489 203.946 252.671C205.503 253.028 207.127 253.22 208.706 253.478C206.359 253.655 203.871 253.671 201.608 254.341C190.845 254.913 180.128 255.519 169.393 256.506C169.022 255.448 169.424 255.029 169.777 253.997Z" fill="#56CA95"/>
<path d="M93.2324 74.0465C93.8166 72.7828 94.4546 71.4139 95.5265 70.4802C100.629 66.035 114.963 69.6796 121.27 70.7087L120.962 71.9126C112.492 71.6364 105.169 70.7001 96.8098 73.0663L93.2324 74.0465Z" fill="#71CCBA"/>
<path d="M287.402 70.2773C293.227 70.7968 299.292 70.5743 303.207 75.6819C305.734 78.9782 307.493 82.9614 309.793 86.4288L308.795 87.3222C306.08 86.6598 300.155 77.4431 296.991 75.0073C294.133 74.6406 291.481 74.3595 288.781 73.2779L288.902 72.8929C292.967 73.2791 298.698 74.2483 301.373 77.5458C302.56 79.01 303.746 80.2457 305.132 81.5217L305.26 81.1086C295.66 66.9933 296.936 75.4045 287.402 70.2773Z" fill="#2EA57A"/>
<path d="M80.1915 90.8828L80.8221 92.1991C80.1084 94.0898 78.2848 94.9247 76.52 95.6763C72.7116 97.2957 68.8054 98.2796 64.6768 97.7565C68.2798 94.4455 75.574 93.1036 80.1915 90.8828Z" fill="#56CA95"/>
<path d="M74.5032 206.037C74.1916 205.524 73.9508 205.175 73.7418 204.581C73.0512 202.615 72.8557 199.583 73.7076 197.711C73.9618 197.936 74.7721 198.638 74.9664 198.866C75.2231 199.167 75.4272 199.508 75.6582 199.828C77.12 196.105 78.1356 192.398 80.459 189.08L81.1838 189.439C78.5952 194.86 77.0515 200.718 74.5032 206.037Z" fill="#5B864E"/>
<path d="M244.974 103.389C246.487 101.924 249.61 99.507 251.652 99.0878C253.443 98.7199 253.607 98.9472 254.969 99.9751C257.903 99.4777 260.082 99.4581 262.851 100.644C268.929 102.748 277.321 108.11 280.847 113.589C282.008 115.03 283.257 116.42 284.106 118.075L282.883 118.628L282.671 121.021C282.557 122.878 282.442 124.414 281.763 126.177C282.658 127.879 282.689 129.37 282.797 131.242C275.286 142.246 264.848 150.819 255.506 160.193C240.662 175.09 226.493 190.552 210.321 204.067C206.979 207.51 202.315 210.119 198.299 212.745C195.678 211.349 193.484 209.571 191.384 207.483C182.811 198.962 175.553 188.997 167.501 179.972C161.553 173.306 154.202 167.011 149.111 159.67C147.477 157.313 146.548 153.871 145.656 151.151C144.35 149.045 143.932 148.174 144.053 145.709L146.399 145.579C146.746 144.437 147.268 143.443 147.796 142.376L148.63 142.498C149.191 141.698 149.657 140.902 150.11 140.037L150.417 140.719C149.927 141.959 149.278 142.763 149.704 144.066C154.463 137.278 158.269 132.813 165.729 128.802L164.82 126.711C166.814 126.026 168.875 125.54 170.913 125.005C180.749 125.978 187.362 130.331 193.602 137.868C196.982 141.949 199.964 146.728 202.138 151.561C203.386 148.846 204.87 146.612 206.625 144.223C207.612 142.905 208.639 141.791 209.792 140.623C220.937 127.882 232.64 114.979 244.974 103.389Z" fill="#FEFEFD"/>
<path d="M244.975 103.389C246.488 101.924 249.611 99.507 251.653 99.0878C253.443 98.7199 253.607 98.9472 254.97 99.9751C257.903 99.4777 260.082 99.4581 262.852 100.644L260.891 101.619C258.121 101.106 256.522 101.345 254.152 102.93C247.324 107.497 241.271 115.071 235.588 120.969C225.72 131.211 215.053 141.534 206.288 152.741L204.312 155.248C203.845 154.588 203.611 154.003 203.312 153.258L202.139 151.561C203.387 148.846 204.87 146.612 206.625 144.223C207.613 142.905 208.64 141.791 209.792 140.623C220.937 127.882 232.64 114.979 244.975 103.389Z" fill="#020301"/>
<path d="M244.975 103.389L246.739 104.039L246.617 105.757C234.792 117.801 223.156 130.025 211.71 142.43C210.659 141.861 210.464 141.567 209.792 140.623C220.937 127.882 232.64 114.979 244.975 103.389Z" fill="#40C59D"/>
<path d="M244.975 103.389C246.488 101.924 249.61 99.507 251.653 99.0878C253.443 98.7199 253.607 98.9472 254.97 99.9751C251.867 101.617 249.332 103.556 246.617 105.757L246.739 104.039L244.975 103.389Z" fill="#56CA95"/>
<path d="M202.139 151.561C203.387 148.847 204.87 146.613 206.625 144.223C207.076 145.531 206.946 145.915 208.13 146.721C206.55 148.911 205.019 151.166 203.312 153.259L202.139 151.561Z" fill="#2EA57A"/>
<path d="M206.625 144.223C207.613 142.906 208.64 141.791 209.792 140.624C210.464 141.568 210.659 141.862 211.71 142.43C210.526 143.863 209.366 145.333 208.13 146.722C206.946 145.915 207.076 145.531 206.625 144.223Z" fill="#56CA95"/>
<path d="M147.796 142.376L148.63 142.499C149.191 141.698 149.657 140.902 150.11 140.037L150.417 140.719C149.927 141.96 149.278 142.764 149.704 144.067C148.863 149.458 148.387 153.167 151.694 157.897C156.622 164.947 163.819 170.761 169.684 177.037C179.284 187.312 188.349 198.594 198.97 207.838C201.659 206.463 204.239 205.051 206.784 203.411L210.321 204.067C206.979 207.51 202.315 210.12 198.299 212.745C195.678 211.349 193.484 209.571 191.384 207.484C182.811 198.962 175.553 188.998 167.501 179.973C161.553 173.307 154.202 167.011 149.111 159.671C147.477 157.313 146.548 153.871 145.656 151.152C144.35 149.046 143.932 148.175 144.053 145.709L146.399 145.58C146.746 144.437 147.268 143.443 147.796 142.376Z" fill="url(#paint3_linear_492_1899)"/>
<path d="M144.053 145.709L146.399 145.58L145.656 151.152C144.35 149.046 143.932 148.174 144.053 145.709Z" fill="#5B864E"/>
<path d="M281.763 126.177C282.659 127.879 282.689 129.37 282.797 131.242C275.287 142.246 264.849 150.819 255.506 160.193C240.663 175.09 226.493 190.552 210.321 204.067L206.784 203.411C221.288 190.752 234.34 176.551 247.875 162.885C259.301 151.348 273.685 140.33 281.763 126.177Z" fill="#020301"/>
<path d="M170.914 125.005C180.75 125.978 187.362 130.331 193.603 137.869C196.982 141.95 199.964 146.728 202.139 151.561L203.312 153.259C203.611 154.003 203.845 154.588 204.312 155.248L203.393 156.08C199.925 154.867 189.965 136.949 180.646 131.293C175.733 128.312 171.28 127.431 165.729 128.802L164.821 126.711C166.814 126.027 168.875 125.54 170.914 125.005Z" fill="url(#paint4_linear_492_1899)"/>
<path d="M262.852 100.644C268.93 102.749 277.321 108.11 280.847 113.59C282.008 115.031 283.258 116.42 284.106 118.075L282.884 118.629L282.671 121.022L279.07 115.887C277.244 114.703 275.346 112.504 273.677 111.036C269.575 107.433 265.606 104.385 260.891 101.619L262.852 100.644Z" fill="#092C0F"/>
<path d="M279.07 115.887L280.056 115.313L281.214 116.411L280.353 115.707L280.997 114.804L280.763 114.775L280.072 115.336L280.847 113.589C282.008 115.03 283.257 116.42 284.105 118.075L282.883 118.629L282.67 121.022L279.07 115.887Z" fill="#062207"/>
<path d="M144.053 145.71C144.36 144.101 144.702 142.478 145.291 140.945C147.815 134.389 155.606 127.826 161.771 124.806L162.446 125.093C156.628 129.427 151.8 132.97 147.315 138.849C150.039 137.546 153.036 133.6 155.341 131.45C161.386 125.813 167.8 124.014 175.882 124.274L175.956 124.9L175.85 123.672L175.325 125.066C173.603 124.683 172.689 124.619 170.913 125.005C168.875 125.541 166.814 126.027 164.821 126.712L165.729 128.803C158.27 132.814 154.464 137.279 149.704 144.067C149.278 142.764 149.927 141.96 150.417 140.719L150.11 140.037C149.657 140.903 149.191 141.698 148.63 142.499L147.796 142.377C147.268 143.443 146.747 144.437 146.399 145.58L144.053 145.71Z" fill="#2EA57A"/>
<path d="M147.796 142.376C150.838 135.182 158.057 130.121 164.82 126.711L165.729 128.802C158.269 132.813 154.464 137.278 149.704 144.066C149.278 142.763 149.927 141.959 150.417 140.719L150.11 140.037C149.657 140.902 149.191 141.698 148.63 142.498L147.796 142.376Z" fill="#020301"/>
<path d="M178.92 241.556C184.476 242.115 190.316 244.901 195.808 246.264C200.047 247.315 204.57 247.702 208.726 248.995C209.662 249.286 210.183 249.754 210.795 250.492C200.793 251.931 187.4 246.809 178.92 241.556Z" fill="#2D6D37"/>
<path d="M282.671 121.021L282.884 118.628L284.106 118.075C285.501 120.955 286.456 123.643 285.207 126.794C284.595 128.336 283.74 129.878 282.797 131.242C282.69 129.37 282.659 127.879 281.763 126.177C282.443 124.414 282.558 122.878 282.671 121.021Z" fill="#062207"/>
<path d="M115.033 175.806C115.775 175.666 116.521 175.544 117.27 175.441C118.018 175.336 118.768 175.251 119.521 175.184C120.273 175.117 121.027 175.068 121.782 175.037C122.537 175.007 123.293 174.995 124.048 175.002C124.803 175.008 125.558 175.033 126.313 175.076C127.067 175.119 127.82 175.181 128.571 175.262C129.323 175.342 130.071 175.44 130.818 175.557C131.564 175.673 132.308 175.808 133.048 175.961C133.788 176.114 134.524 176.284 135.254 176.473C135.986 176.662 136.713 176.869 137.435 177.093C138.156 177.317 138.872 177.559 139.582 177.818C140.292 178.077 140.995 178.353 141.691 178.646C142.387 178.94 143.076 179.25 143.757 179.578C144.438 179.904 145.11 180.248 145.775 180.608C146.439 180.968 147.094 181.344 147.741 181.735C148.387 182.127 149.023 182.534 149.65 182.957C150.275 183.38 150.891 183.818 151.495 184.271C152.101 184.724 152.694 185.191 153.276 185.673C153.858 186.155 154.428 186.651 154.986 187.16C155.543 187.67 156.088 188.193 156.62 188.73C157.153 189.266 157.672 189.814 158.177 190.376C158.682 190.937 159.174 191.511 159.652 192.097C160.13 192.683 160.592 193.279 161.041 193.887C161.489 194.495 161.922 195.114 162.341 195.744C162.759 196.373 163.162 197.012 163.549 197.66C163.936 198.31 164.306 198.968 164.661 199.635C165.016 200.302 165.355 200.977 165.676 201.661C165.998 202.344 166.303 203.035 166.592 203.733C166.88 204.432 167.151 205.137 167.405 205.849C167.659 206.56 167.896 207.278 168.115 208.001C168.333 208.724 168.534 209.452 168.717 210.185C168.901 210.918 169.066 211.655 169.214 212.396C169.361 213.138 169.49 213.882 169.601 214.629C169.713 215.377 169.805 216.126 169.88 216.878C169.954 217.63 170.01 218.384 170.048 219.138C170.086 219.893 170.105 220.648 170.106 221.403C170.107 222.159 170.089 222.914 170.053 223.669C170.017 224.423 169.963 225.177 169.889 225.929C169.817 226.681 169.726 227.431 169.617 228.179C169.508 228.927 169.38 229.671 169.234 230.412C169.088 231.153 168.925 231.891 168.743 232.625C168.561 233.359 168.362 234.087 168.145 234.811C167.928 235.534 167.693 236.252 167.441 236.964C167.189 237.676 166.919 238.382 166.632 239.081C166.345 239.78 166.042 240.472 165.722 241.156C165.401 241.841 165.065 242.517 164.711 243.185C164.357 243.852 163.988 244.511 163.602 245.161C163.217 245.811 162.816 246.451 162.4 247.081C161.983 247.711 161.551 248.331 161.104 248.94C160.657 249.55 160.195 250.148 159.718 250.735C159.242 251.321 158.752 251.896 158.248 252.458C157.743 253.021 157.226 253.571 156.696 254.109C156.164 254.646 155.62 255.17 155.064 255.681C154.507 256.192 153.939 256.689 153.358 257.173C152.777 257.656 152.184 258.125 151.581 258.579C150.977 259.034 150.362 259.473 149.736 259.896C149.111 260.321 148.476 260.73 147.831 261.123C147.186 261.517 146.531 261.894 145.868 262.255C145.205 262.617 144.533 262.962 143.853 263.29C143.172 263.619 142.484 263.93 141.788 264.225C141.093 264.52 140.39 264.799 139.681 265.06C138.972 265.321 138.256 265.564 137.535 265.79C136.815 266.016 136.089 266.224 135.357 266.414C134.626 266.604 133.891 266.777 133.151 266.931C132.402 267.088 131.65 267.226 130.895 267.346C130.139 267.465 129.38 267.565 128.62 267.646C127.859 267.729 127.097 267.792 126.333 267.836C125.569 267.88 124.805 267.905 124.041 267.912C123.276 267.918 122.511 267.906 121.747 267.875C120.982 267.843 120.219 267.793 119.457 267.725C118.696 267.655 117.936 267.567 117.178 267.461C116.42 267.354 115.666 267.229 114.914 267.085C114.163 266.941 113.416 266.779 112.672 266.599C111.929 266.418 111.19 266.219 110.457 266.001C109.724 265.785 108.996 265.549 108.274 265.296C107.552 265.043 106.837 264.772 106.128 264.483C105.42 264.195 104.719 263.889 104.026 263.565C103.332 263.243 102.647 262.903 101.97 262.546C101.294 262.189 100.626 261.816 99.968 261.425C99.3096 261.035 98.6615 260.629 98.0235 260.208C97.3855 259.786 96.7581 259.348 96.1413 258.895C95.5253 258.442 94.9203 257.974 94.3263 257.491C93.7331 257.009 93.1522 256.512 92.5834 256C92.0147 255.488 91.459 254.963 90.9163 254.424C90.3729 253.885 89.8437 253.333 89.3287 252.768C88.8129 252.203 88.3114 251.625 87.8241 251.035C87.3369 250.445 86.8647 249.844 86.4076 249.23C85.9505 248.617 85.5085 247.993 85.0815 247.358C84.6554 246.723 84.2447 246.078 83.8495 245.423C83.4552 244.767 83.0771 244.102 82.7153 243.428C82.3535 242.754 82.0085 242.072 81.6801 241.38C81.3526 240.689 81.0417 239.99 80.7476 239.284C80.4542 238.577 80.1784 237.864 79.9201 237.145C79.6618 236.425 79.4215 235.699 79.199 234.967C78.9766 234.234 78.7721 233.497 78.5855 232.756C78.3997 232.014 78.2322 231.267 78.0831 230.517C77.934 229.766 77.8033 229.013 77.6908 228.256C77.5792 227.5 77.4863 226.741 77.4122 225.979C77.3372 225.218 77.2814 224.455 77.2447 223.691C77.2081 222.927 77.1901 222.162 77.1909 221.397C77.1926 220.632 77.2125 219.867 77.2508 219.104C77.2899 218.34 77.3474 217.577 77.4232 216.816C77.4998 216.054 77.5951 215.295 77.7091 214.539C77.8232 213.783 77.9556 213.03 78.1064 212.279C78.2579 211.529 78.4278 210.784 78.616 210.042C78.8034 209.3 79.0096 208.564 79.2345 207.833C79.4585 207.101 79.7005 206.375 79.9605 205.656C80.2212 204.936 80.4991 204.224 80.794 203.518C81.0898 202.813 81.4027 202.115 81.7327 201.425C82.0627 200.735 82.4094 200.053 82.7728 199.38C83.1362 198.707 83.5159 198.043 83.9119 197.389C84.3087 196.735 84.721 196.09 85.1487 195.457C85.5773 194.823 86.021 194.199 86.4797 193.587C86.9385 192.975 87.4123 192.375 87.9012 191.786C88.39 191.197 88.8928 190.621 89.4093 190.057C89.9267 189.493 90.4576 188.943 91.0019 188.406C91.5462 187.868 92.1031 187.344 92.6727 186.834C93.243 186.324 93.8256 185.828 94.4204 185.346C95.0152 184.865 95.6214 184.398 96.2391 183.947C96.8567 183.496 97.4849 183.06 98.1237 182.641C98.7633 182.22 99.4127 181.816 100.072 181.427C100.731 181.039 101.399 180.667 102.076 180.312C102.754 179.957 103.44 179.618 104.135 179.297C104.829 178.976 105.531 178.672 106.24 178.385C106.949 178.098 107.665 177.829 108.388 177.578C109.111 177.327 109.839 177.094 110.573 176.878C111.307 176.663 112.046 176.466 112.79 176.288C113.533 176.108 114.281 175.948 115.033 175.806Z" fill="#04F4E5"/>
<path d="M120.789 225.808C115.311 221.963 109.962 218.002 108.592 210.975C107.901 207.437 108.513 203.415 110.743 200.508C113.105 197.427 116.828 196.292 120.562 196.01C127.965 195.453 130.969 200.22 137.509 201.466C139.617 201.869 141.446 201.975 143.04 203.554C144.037 205.687 143.998 208.702 143.311 210.925C142.655 209.267 142.449 207.653 142.207 205.902C136.945 204.05 131.42 203.199 126.183 201.278C126.095 208.116 125.884 214.95 125.551 221.78C131.194 224.856 139.951 228.288 141.888 234.996C142.645 237.618 142.035 240.419 140.592 242.69C137.735 247.188 131.058 250.471 125.907 251.348C124.832 251.532 123.492 251.714 122.432 251.416L122.652 250.192L121.99 250.706C119.885 247.102 118.716 245.652 114.884 243.782C115.062 243.552 115.222 243.308 115.42 243.095C116.641 241.786 117.025 242.066 118.737 242.146C120.22 241.016 120.354 240.448 120.522 238.582C120.899 234.388 120.745 230.022 120.789 225.808Z" fill="#020301"/>
<path d="M125.736 227.818C128.859 228.948 131.896 229.854 134.545 231.961C136.328 233.379 138.056 235.216 138.035 237.659C138.013 240.173 136.441 241.901 134.707 243.495C131.634 244.951 128.144 245.948 124.928 247.088C125.527 240.721 125.51 234.214 125.736 227.818Z" fill="#04F4E5"/>
<path d="M117.567 199.981C119.107 199.904 120.359 199.83 121.858 200.307C121.975 203.432 121.898 216.617 120.588 218.545L118.183 217.373C116.599 216.086 115.085 214.813 113.929 213.11C112.549 211.075 111.64 208.589 112.2 206.121C112.901 203.03 115.027 201.579 117.567 199.981Z" fill="#04F4E5"/>
<path d="M114.883 243.782C113.368 243.403 110.352 241.739 109.424 240.44C108.768 239.522 108.948 239.926 109.085 238.695L110.613 238.296C113.632 238.783 116.147 240.603 118.737 242.146C117.024 242.066 116.641 241.786 115.42 243.095C115.222 243.307 115.062 243.552 114.883 243.782Z" fill="#0F1D14"/>
<path d="M166.886 252.516C167.833 253.058 168.738 253.649 169.777 253.997C169.423 255.029 169.021 255.448 169.393 256.506C165.591 258.107 161.238 258.813 157.308 260.428C160.52 257.814 163.713 255.177 166.886 252.516Z" fill="#40C59D"/>
<path d="M76.7792 227.82C77.6454 233.616 78.4638 239.419 79.2346 245.228C77.2217 240.662 75.3015 235.96 74.2847 231.054C74.6183 229.365 75.5472 228.948 76.7792 227.82Z" fill="#7FE4CE"/>
<path d="M75.9204 222.399L76.5487 224.26L76.7784 227.82C75.5464 228.948 74.6175 229.365 74.2839 231.054C73.7596 228.54 73.5762 225.992 73.3354 223.44C73.8952 223.96 74.4574 224.262 75.1174 224.641L75.9204 222.399Z" fill="#42ECB8"/>
<path d="M333.256 242.126C333.798 242.181 334.341 242.226 334.878 242.322C337.726 242.826 339.749 244.458 341.306 246.844C343.101 249.595 343.76 252.797 342.974 256.012C342.296 258.783 340.873 260.056 338.54 261.546C337.908 261.509 337.274 261.481 336.645 261.405C334.073 261.096 332.59 259.582 331.147 257.572C329.038 254.635 327.958 251.098 328.752 247.484C329.362 244.711 331.012 243.584 333.256 242.126Z" fill="#0A0B07"/>
<path d="M332.35 249.771C333.611 250.026 334.382 250.381 335.521 250.947C336.724 252.471 336.79 253.554 336.934 255.403C335.378 255.666 335.331 255.68 333.937 254.951C332.753 253.243 332.611 251.768 332.35 249.771Z" fill="#181110"/>
<path d="M66.2947 61.9437C68.0999 61.7396 69.1913 61.6797 70.9794 62.1857C72.3177 63.2417 73.1745 64.1278 73.8956 65.6996C75.1092 68.3469 74.8856 71.4549 73.887 74.1389C72.8139 77.0245 71.0906 77.8373 68.3798 79.0314C65.3365 78.3237 62.7931 77.3362 60.9377 74.6767C59.7681 72.9998 59.3904 71.0382 59.8292 69.0423C60.6566 65.2779 63.167 63.7929 66.2947 61.9437Z" fill="#020301"/>
<path d="M325.949 65.6094C327.147 65.4798 328.36 65.3331 329.565 65.4725C331.853 65.7389 333.94 67.1812 335.397 68.9179C336.827 70.6253 337.471 72.8473 337.027 75.0497C336.516 77.5882 334.869 78.7225 332.882 80.0669C332.433 80.1048 331.983 80.1414 331.534 80.1585C328.878 80.2587 326.727 79.3409 324.854 77.4379C323.199 75.7574 322.372 73.5892 322.512 71.2377C322.675 68.5305 323.991 67.2325 325.949 65.6094Z" fill="#020301"/>
<path d="M224.867 -17.2378C227.025 -18.1569 229.267 -18.966 231.594 -19.318C237.597 -20.2261 243.881 -19.8105 249.943 -20.3556C256.099 -20.9105 263.012 -22.833 269.117 -22.6582C270.923 -22.6057 270.966 -22.2732 272.103 -20.9875C274.823 -21.1684 276.753 -21.4067 278.952 -19.4634C281.103 -17.5628 281.999 -13.4624 282.826 -10.776C286.015 1.0147 288.573 13.81 289.407 26.0224C290.222 29.1158 290.248 32.7934 290.117 35.9846C287.539 36.8401 283.714 37.3974 281.379 38.528C279.294 38.77 276.966 39.2711 274.881 39.1868C267.335 40.4273 259.692 40.8392 252.116 41.8389C244.348 42.8631 235.449 45.9895 227.666 45.0228C227.039 46.2633 226.513 47.1287 225.52 48.1052L223.113 48.2029L223.597 46.3244C223.029 44.1501 221.065 42.5124 219.543 40.9162C218.19 33.8787 218.274 27.0355 218.361 19.9076C218.095 14.9136 218.623 9.80483 218.907 4.81333C219.531 -3.01003 220.425 -10.5706 224.867 -17.2378Z" fill="#FEFEFD"/>
<path d="M259.488 7.43457L261.297 8.15563C264.118 7.51031 266.799 6.9897 269.395 8.63723C272.477 10.594 275.283 15.4156 275.879 18.9636C276.294 21.4276 275.78 23.8586 274.241 25.8495C270.653 30.4903 263.375 31.3849 257.91 31.8775C253.265 32.2967 246.92 32.584 243.054 29.5932C241.645 28.503 240.629 26.8652 240.45 25.0795C240.418 24.7642 240.403 24.4477 240.381 24.1311C241.584 23.3293 241.827 22.4616 242.481 21.2442L242.233 22.8796C243.807 23.289 245.468 23.597 246.914 24.3585C247.566 23.3612 248.296 22.4543 249.047 21.5291C252.052 15.8006 254.665 11.8101 259.488 7.43457Z" fill="#09390C"/>
<path d="M259.488 7.43457L261.297 8.15563L261.281 8.58584L259.261 10.0268C259.236 11.5033 258.975 10.9484 259.893 11.9323C261.293 13.4332 263.136 14.5209 264.799 15.7125L265.618 16.4507C266.456 17.5886 267.233 18.6337 267.896 19.8889C266.768 21.501 266.006 22.623 264.197 23.5555L262.645 23.3037L260.629 22.7085L259.477 24.0443C257.941 23.8769 257.958 23.7657 256.859 22.651L255.756 23.696C253.446 23.2292 250.957 22.9982 249.047 21.5291C252.052 15.8006 254.665 11.8101 259.488 7.43457Z" fill="#9CFCE0"/>
<path d="M260.107 17.1221C261.458 15.774 263.026 15.8302 264.798 15.7129L265.617 16.4511C266.456 17.589 267.233 18.634 267.895 19.8892C266.767 21.5013 266.006 22.6233 264.197 23.5559L262.645 23.3041L260.628 22.7089L260.107 17.1221Z" fill="#62FBBE"/>
<path d="M265.617 16.4512C266.456 17.589 267.233 18.6341 267.896 19.8893C266.768 21.5014 266.006 22.6234 264.197 23.5559L262.645 23.3042C264.099 21.0749 264.868 18.9983 265.617 16.4512Z" fill="#26C634"/>
<path d="M260.108 17.1216L260.629 22.7084L259.477 24.0442C257.941 23.8767 257.958 23.7655 256.859 22.6508C257.802 20.7246 258.973 18.9378 260.108 17.1216Z" fill="#1DAD23"/>
<path d="M261.281 8.58609C264.191 8.43575 265.797 8.60692 268.045 10.5539C271.158 13.2501 273.454 17.2137 273.561 21.3912C273.602 23.051 273.272 24.2573 272.336 25.6384L269.826 27.1221C267.918 27.7027 266.006 28.3456 264.069 28.8149C262.848 28.194 262.716 27.93 261.988 26.8276C262.347 24.9393 262.809 24.8073 264.197 23.5558C266.006 22.6232 266.768 21.5012 267.896 19.8891C267.233 18.6339 266.456 17.5889 265.618 16.451L264.799 15.7128C263.136 14.5211 261.293 13.4334 259.893 11.9325C258.975 10.9487 259.236 11.5035 259.261 10.0271L261.281 8.58609Z" fill="#BEF4E3"/>
<path d="M267.895 19.8887C267.602 21.6694 268.029 25.1771 269.207 26.5875C269.317 26.7208 269.642 26.975 269.825 27.1217C267.917 27.7022 266.006 28.3451 264.069 28.8144C262.848 28.1936 262.716 27.9296 261.987 26.8272C262.347 24.9388 262.809 24.8068 264.197 23.5553C266.006 22.6228 266.767 21.5008 267.895 19.8887Z" fill="#93FDCB"/>
<path d="M249.047 21.5298C250.957 22.9989 253.445 23.2299 255.755 23.6968L256.859 22.6517C257.958 23.7664 257.941 23.8776 259.477 24.0451L260.628 22.7092L262.645 23.3045L264.197 23.5562C262.809 24.8078 262.347 24.9398 261.988 26.8281C262.716 27.9305 262.848 28.1945 264.069 28.8154C258.526 29.4998 250.242 30.843 245.284 27.8633C243.229 26.6288 242.736 25.0485 242.233 22.8803C243.807 23.2897 245.468 23.5978 246.914 24.3592C247.565 23.3619 248.296 22.455 249.047 21.5298Z" fill="#8FFCA2"/>
<path d="M249.046 21.5298C250.957 22.9989 253.445 23.2299 255.755 23.6968C255.612 25.3089 255.533 25.3174 254.419 26.5103C252.533 27.0921 251.106 27.0493 249.364 26.1363C248.424 25.6449 247.56 25.2086 246.914 24.3592C247.565 23.3619 248.296 22.455 249.046 21.5298Z" fill="#62FBBE"/>
<path d="M224.867 -17.2378C227.025 -18.1569 229.267 -18.966 231.594 -19.318C237.597 -20.2261 243.881 -19.8105 249.943 -20.3556C256.099 -20.9105 263.012 -22.833 269.117 -22.6582C270.923 -22.6057 270.966 -22.2732 272.103 -20.9875C274.823 -21.1684 276.753 -21.4067 278.952 -19.4634C281.103 -17.5628 281.999 -13.4624 282.826 -10.776L281.002 -9.46937C280.311 -12.1436 279.358 -16.3553 277.285 -18.2571C275.989 -19.445 274.706 -19.5062 273.061 -19.2214C267.869 -18.3231 260.69 -14.4609 257.519 -10.3237C254.97 -5.27724 253.096 0.789801 251.517 6.21763C250.262 8.45427 248.948 10.675 247.82 12.9777C246.076 15.702 244.415 18.6683 242.481 21.2447C241.827 22.462 241.584 23.3298 240.381 24.1315C240.049 17.5145 246.981 10.0652 249.176 3.69503C250.834 -1.11314 251.061 -5.83942 251.402 -10.8725C246.023 -14.2372 241.407 -15.0182 235.197 -15.2346L234.894 -16.6169C231.715 -16.0461 228.717 -15.4509 226.746 -12.6386C224.793 -9.85072 224.092 -5.97391 223.385 -2.69105C221.874 -0.366411 220.794 2.90057 218.907 4.81333C219.531 -3.01003 220.425 -10.5706 224.867 -17.2378Z" fill="#053C0A"/>
<path d="M224.867 -17.2378C227.025 -18.1569 229.267 -18.966 231.594 -19.318C237.597 -20.2261 243.881 -19.8105 249.943 -20.3556C256.099 -20.9105 263.012 -22.833 269.117 -22.6582C270.923 -22.6057 270.966 -22.2732 272.103 -20.9875C265.358 -19.5306 258.363 -17.4382 251.486 -16.9236C246.05 -16.5154 240.236 -17.5653 234.894 -16.6169C231.715 -16.0461 228.717 -15.4509 226.746 -12.6386C224.793 -9.85072 224.092 -5.97391 223.385 -2.69105C221.874 -0.366411 220.794 2.90057 218.907 4.81333C219.531 -3.01003 220.425 -10.5706 224.867 -17.2378Z" fill="#9AFD79"/>
<path d="M223.386 -2.69088C224.092 -5.97373 224.794 -9.85055 226.747 -12.6384C228.717 -15.4507 231.715 -16.0459 234.894 -16.6167L235.197 -15.2344C232.745 -14.7932 230.724 -14.3788 229.169 -12.2192C224.581 -5.84412 224.792 27.8534 226.386 36.2817C226.814 38.5477 227.382 41.1254 228.887 42.9269C235.246 44.4815 243.507 39.9153 250.05 39.1698L253.294 39.6037C250.259 40.1293 247.204 40.5411 244.197 41.2133C251.494 43.6003 267.494 36.3233 274.881 39.1869C267.335 40.4275 259.692 40.8393 252.116 41.8391C244.348 42.8633 235.449 45.9897 227.666 45.0229C227.039 46.2635 226.513 47.1288 225.52 48.1054L223.113 48.2031L223.597 46.3246C223.029 44.1503 221.065 42.5125 219.543 40.9163C218.19 33.8789 218.274 27.0357 218.361 19.9078C218.095 14.9138 218.623 9.80501 218.907 4.81351C220.794 2.90075 221.874 -0.366234 223.386 -2.69088Z" fill="#020301"/>
<path d="M218.361 19.9069C219.21 15.8883 220.686 12.8353 222.596 9.22363C222.512 16.8404 220.411 38.9808 225.646 43.8012C226.256 44.3621 226.912 44.7104 227.665 45.0221C227.038 46.2626 226.513 47.128 225.519 48.1045L223.113 48.2023L223.597 46.3237C223.028 44.1494 221.064 42.5117 219.542 40.9155C218.189 33.878 218.274 27.0348 218.361 19.9069Z" fill="#BAF5B1"/>
<path d="M223.386 -2.69141L222.596 9.22394C220.687 12.8356 219.21 15.8886 218.361 19.9072C218.095 14.9133 218.623 9.80447 218.907 4.81297C220.794 2.90022 221.874 -0.366765 223.386 -2.69141Z" fill="#8FFCA2"/>
<path d="M251.517 6.21724C253.096 0.789407 254.97 -5.27763 257.519 -10.3241C258.593 -9.81569 259.439 -9.39277 260.396 -8.67411C261.204 -5.31425 258.688 -3.87328 261.781 -1.16242C263.92 -4.94515 266.706 -8.34292 269.337 -11.792C266.864 -5.03684 264.341 1.98843 259.488 7.4346C254.665 11.8101 252.052 15.8006 249.047 21.5291C248.296 22.4543 247.565 23.3612 246.914 24.3585C245.468 23.5971 243.807 23.289 242.233 22.8796L242.481 21.2443C244.415 18.6679 246.076 15.7016 247.82 12.9773C248.948 10.6746 250.262 8.45388 251.517 6.21724Z" fill="#76EC8B"/>
<path d="M251.517 6.21812C253.096 0.790297 254.97 -5.27674 257.519 -10.3232C258.593 -9.8148 259.439 -9.39187 260.396 -8.67322C261.204 -5.31336 258.688 -3.87239 261.781 -1.16153C260.523 1.61166 257.456 7.35723 254.708 8.764C253.54 9.32254 252.539 9.80291 251.258 10.029L251.517 6.21812Z" fill="#62FBBE"/>
<path d="M247.82 12.9773C248.948 10.6747 250.262 8.45393 251.517 6.21729L251.258 10.0282C252.539 9.80207 253.54 9.3217 254.708 8.76316C253.454 10.4205 251.852 13.3831 249.84 14.0345C249.088 13.7143 248.485 13.4601 247.82 12.9773Z" fill="#8FFCA2"/>
<path d="M282.826 -10.7764C286.015 1.01428 288.573 13.8096 289.406 26.0219C290.221 29.1153 290.247 32.793 290.116 35.9842C287.539 36.8397 283.713 37.397 281.379 38.5276C279.294 38.7696 276.965 39.2707 274.88 39.1863C267.493 36.3227 251.493 43.5997 244.197 41.2127C247.203 40.5405 250.259 40.1287 253.294 39.6031L250.05 39.1692C262.469 36.8115 275.269 37.5229 287.541 33.9296C287.013 29.6348 286.431 25.346 286.178 21.0243C283.794 11.0364 283.472 0.569435 281.001 -9.46979L282.826 -10.7764Z" fill="#0A0B07"/>
<path d="M282.826 -10.7764C286.015 1.01428 288.573 13.8096 289.407 26.0219C286.173 21.7075 286.36 8.23999 284.562 2.11061C283.954 7.85744 287.809 14.351 286.442 20.0978C286.367 20.4107 286.265 20.7163 286.179 21.0243C283.794 11.0364 283.473 0.569436 281.001 -9.46979L282.826 -10.7764Z" fill="#081606"/>
<path d="M381.576 -0.341315C385.057 -0.501424 387.331 -0.417082 390.401 1.30379C395.476 4.14787 399.25 9.43758 400.654 15.0475C401.525 18.5223 401.504 22.421 399.525 25.5279C397.654 28.4649 395.136 29.9022 391.795 30.5891C385.022 28.7803 376.992 24.7311 373.321 18.5369C371.644 15.7075 370.993 12.2376 371.956 9.04889C373.326 4.51206 377.547 1.62033 381.576 -0.341315Z" fill="#020301"/>
<path d="M380.058 18.4798C378.564 16.836 377.319 15.3179 377.171 13.0104C377.046 11.0695 377.693 9.51616 379.024 8.09351C380.544 6.47042 383.201 5.81895 385.35 6.01328C388.667 6.31272 390.757 8.47234 392.673 10.973C393.063 14.0151 393.271 16.5744 391.323 19.1484C390.439 20.3168 389.183 21.2872 387.714 21.5574C385.06 22.0426 381.964 20.1469 380.058 18.4798Z" fill="#FC8910"/>
<path d="M380.058 18.4798C378.564 16.836 377.319 15.3179 377.171 13.0104C377.046 11.0695 377.693 9.51616 379.024 8.09351C380.544 6.47042 383.201 5.81895 385.35 6.01328C388.667 6.31272 390.757 8.47234 392.673 10.973L389.848 12.5252C389.8 12.3085 389.736 12.0966 389.656 11.8896C389.577 11.6819 389.483 11.4814 389.375 11.2883C389.265 11.0944 389.143 10.9098 389.008 10.7346C388.872 10.5586 388.724 10.3937 388.564 10.2397C388.405 10.0857 388.234 9.94388 388.053 9.81433C387.873 9.68559 387.685 9.57035 387.488 9.4685C387.29 9.36746 387.086 9.28105 386.876 9.20934C386.666 9.13764 386.452 9.08142 386.234 9.04068C386.015 8.99994 385.795 8.9755 385.574 8.96735C385.352 8.9592 385.131 8.96737 384.91 8.99182C384.689 9.01626 384.471 9.05621 384.256 9.11162C384.042 9.16784 383.832 9.23912 383.628 9.32549C383.423 9.41268 383.226 9.51407 383.036 9.62978C382.847 9.74466 382.667 9.873 382.496 10.0148C382.326 10.1574 382.167 10.311 382.018 10.4756C381.87 10.641 381.734 10.8161 381.611 11.0011C381.489 11.1861 381.381 11.3792 381.286 11.5804C381.192 11.7809 381.112 11.9874 381.048 12.2001C380.983 12.4128 380.935 12.6287 380.902 12.8478C380.87 13.0678 380.853 13.2887 380.852 13.5103C380.852 13.7328 380.868 13.9536 380.9 14.1728C380.932 14.3928 380.981 14.6091 381.044 14.8218C381.108 15.0344 381.186 15.2414 381.28 15.4427C381.374 15.6439 381.482 15.837 381.604 16.022L380.058 18.4798Z" fill="#FDD5BB"/>
<path d="M392.674 10.9727C393.064 14.0147 393.271 16.5741 391.323 19.148C390.44 20.3165 389.183 21.2869 387.714 21.557C385.061 22.0422 381.965 20.1466 380.058 18.4795L381.604 16.0217C381.677 16.1317 381.754 16.2383 381.835 16.3418C381.917 16.4453 382.004 16.5451 382.094 16.6413C382.185 16.7366 382.279 16.8283 382.378 16.9163C382.476 17.0043 382.579 17.0874 382.685 17.1656C382.79 17.2446 382.898 17.3188 383.011 17.3881C383.123 17.4573 383.237 17.5217 383.356 17.5812C383.473 17.6407 383.593 17.6949 383.716 17.7437C383.838 17.7926 383.963 17.8362 384.089 17.8745C384.215 17.9128 384.343 17.9454 384.471 17.9723C384.601 17.9992 384.731 18.0203 384.861 18.0358C384.993 18.0521 385.124 18.0623 385.256 18.0664C385.387 18.0704 385.519 18.0692 385.651 18.0627C385.783 18.0554 385.914 18.0424 386.044 18.0236C386.175 18.0049 386.304 17.9808 386.433 17.9515C386.561 17.9213 386.688 17.8859 386.813 17.8452C386.939 17.8045 387.062 17.7584 387.184 17.707C387.305 17.6557 387.424 17.5991 387.54 17.5372C387.657 17.4753 387.771 17.4084 387.881 17.3367C387.991 17.265 388.099 17.1888 388.203 17.1082C388.307 17.0267 388.407 16.9411 388.504 16.8515C388.6 16.7618 388.693 16.6682 388.781 16.5704C388.87 16.4726 388.954 16.3711 389.033 16.266C389.113 16.1609 389.188 16.0526 389.258 15.9409C389.328 15.8293 389.393 15.7148 389.453 15.5975C389.514 15.481 389.569 15.3616 389.619 15.2394C389.669 15.1172 389.714 14.9933 389.753 14.8678C389.792 14.7416 389.825 14.6141 389.853 14.4853C389.881 14.3566 389.904 14.227 389.92 14.0967C389.937 13.9655 389.948 13.8343 389.953 13.7031C389.959 13.5711 389.959 13.4391 389.953 13.3071C389.947 13.1759 389.935 13.0447 389.918 12.9135C389.9 12.7832 389.877 12.6536 389.848 12.5249L392.674 10.9727Z" fill="#FBD5A9"/>
<path d="M-8.46657 280.39C5.3065 279.078 18.0957 281.867 31.6866 282.181C40.7774 282.393 54.289 280.078 62.7674 282.129C51.2078 284.611 34.7544 283.556 22.7523 282.307C16.2599 281.631 8.05035 279.506 1.57387 280.801C-0.70311 281.256 -0.945084 282.214 -2.11107 284.033L-1.72853 284.513C2.50275 284.038 5.55585 284.337 9.65392 285.421C7.19116 287.08 -9.56534 284.895 -13.8345 285.237C-35.7047 286.988 -57.5358 290.033 -79.4573 291.854C-94.598 291.976 -109.717 292.563 -124.867 292.551C-129.854 292.551 -135.991 293.186 -140.783 292.086C-134.316 289.678 -120.926 293.736 -114.351 291.279L-114.884 289.849C-115.631 289.434 -116.264 289.165 -117.133 289.141C-126.192 288.835 -134.345 289.312 -143.435 287.76C-142.825 287.503 -111.014 288.603 -107.794 288.627C-74.3033 288.872 -41.7803 282.563 -8.46657 280.39Z" fill="#7CFE3C"/>
<path d="M360.416 95.3521C361.03 98.1986 360.76 101.447 360.899 104.366C361.383 114.568 361.065 124.965 361.829 135.109C362.039 137.912 363.188 140.093 363.603 142.667C363.941 144.764 363.337 146.945 363.765 149.071C364.209 151.274 365.366 153.365 366.064 155.502C367.289 159.249 366.051 164.805 365.514 168.659L365.848 168.41C367.83 160.41 366.703 150.787 366.228 142.617C366.063 139.784 365.43 137.911 365.812 134.958C369.414 152.478 366.5 174.952 365.739 192.811C365.22 204.993 365.55 217.317 365.541 229.515C365.403 237.452 365.255 255.936 363.323 262.869C363.007 264 362.944 264.949 361.903 265.537C360.899 258.643 361.862 250.76 362 243.78C362.321 229.819 362.512 215.858 362.572 201.894C362.541 166.354 360.255 130.893 360.416 95.3521Z" fill="#FAF6E0"/>
<path d="M371.826 111.12C372.535 111.635 372.743 111.645 373.135 112.365C376.93 119.334 378.343 246.942 375.589 259.383C375.209 261.102 375.107 262.642 375.093 264.403V265.134L374.525 265.5C373.382 253.37 373.781 241.452 373.849 229.306C373.911 218.271 373.724 207.221 373.623 196.185C373.364 167.84 371.813 139.438 371.826 111.12Z" fill="#6AF831"/>
<path d="M52.762 305.457C54.2519 305.408 55.5816 305.542 57.0532 305.725L56.9933 306.214C52.0409 307.571 46.5385 308.952 41.4089 309.148C40.9151 309.172 40.4152 309.123 39.9276 309.197C38.1138 309.49 36.4247 308.952 34.7625 309.294C34.5865 309.331 34.4191 309.404 34.248 309.453C34.105 309.331 33.9779 309.184 33.8178 309.074C31.5481 307.583 -8.46703 306.092 -12.4563 306.85C-13.9107 307.131 -15.1378 307.192 -16.6228 307.18C-20.5534 305.603 -25.3164 306.557 -29.5098 306.214C-23.7813 304.516 9.24157 306.129 16.9953 306.153C28.9362 306.19 40.8296 305.603 52.762 305.457Z" fill="#7CFE3C"/>
<path d="M299.749 0.0444336C302.781 6.11637 304.822 33.1834 303.181 39.4973C303.057 39.3176 302.912 39.1514 302.809 38.9595C301.534 36.5469 298.904 7.74677 299.007 3.49226C299.037 2.24317 299.34 1.21409 299.749 0.0444336Z" fill="#FAF6E0"/>
<path d="M155.274 49.9624C157.663 50.3621 159.917 50.8033 162.231 51.5317L160.746 53.7427L156.693 53.1475L155.274 49.9624Z" fill="#8FFCA2"/>
</g>
<defs>
<linearGradient id="paint0_linear_492_1899" x1="565.747" y1="289.499" x2="529.058" y2="-148.242" gradientUnits="userSpaceOnUse">
<stop stop-color="#010301"/>
<stop offset="1" stop-color="#071405"/>
</linearGradient>
<linearGradient id="paint1_linear_492_1899" x1="15.06" y1="21.8444" x2="33.4829" y2="-25.9899" gradientUnits="userSpaceOnUse">
<stop stop-color="#FFB340"/>
<stop offset="1" stop-color="#D8F167"/>
</linearGradient>
<linearGradient id="paint2_linear_492_1899" x1="87.4337" y1="171.879" x2="40.0542" y2="175.006" gradientUnits="userSpaceOnUse">
<stop stop-color="#94F89A"/>
<stop offset="1" stop-color="#DCFEDB"/>
</linearGradient>
<linearGradient id="paint3_linear_492_1899" x1="164.097" y1="181.714" x2="184.735" y2="168.897" gradientUnits="userSpaceOnUse">
<stop/>
<stop offset="1" stop-color="#082312"/>
</linearGradient>
<linearGradient id="paint4_linear_492_1899" x1="184.892" y1="138.787" x2="188.735" y2="134.085" gradientUnits="userSpaceOnUse">
<stop stop-color="#06190D"/>
<stop offset="1" stop-color="#143C21"/>
</linearGradient>
<clipPath id="clip0_492_1899">
<rect width="404" height="317" fill="white" transform="translate(0.666504)"/>
</clipPath>
</defs>
</svg>
