<svg width="595" height="453" viewBox="0 0 595 453" fill="none" xmlns="http://www.w3.org/2000/svg">
<g clip-path="url(#clip0_88_181)">
<path d="M679.814 460.841C718.937 501.382 748.83 549.095 769.494 603.982H553.534C547.387 594.819 540.717 586.202 533.522 578.132C484.114 523.138 421.386 495.641 345.34 495.641C269.294 495.641 206.996 522.923 158.447 577.488C118.447 622.4 94.7801 685.51 87.4476 766.815H-110.468C-101.783 639.354 -60.9087 537.577 12.1549 461.485C95.0753 375.557 205.922 332.593 344.696 332.593C485.188 332.593 596.894 375.342 679.814 460.841Z" stroke="#66DB4A" stroke-width="54.2778" stroke-linejoin="round"/>
<path d="M-77.2752 -47.3512C-56.611 7.53539 -26.7178 55.2493 12.4043 95.7903C95.3247 181.289 207.031 224.038 347.523 224.038C486.297 224.038 597.144 181.074 680.064 95.1459C753.128 19.0538 794.002 -82.7231 802.687 -210.185H604.771C597.439 -128.879 573.772 -65.7695 533.772 -20.8568C485.223 33.7074 422.925 60.9895 346.879 60.9895C270.832 60.9895 208.105 33.4926 158.697 -21.5013C151.502 -29.5714 144.832 -38.188 138.685 -47.3512H-77.2752Z" stroke="#66DB4A" stroke-width="54.2778" stroke-linejoin="round"/>
</g>
<defs>
<clipPath id="clip0_88_181">
<rect y="0.81543" width="595" height="452" rx="100" fill="white"/>
</clipPath>
</defs>
</svg>
