<svg width="1403" height="1495" viewBox="0 0 1403 1495" fill="none" xmlns="http://www.w3.org/2000/svg">
<path d="M1184.98 1012.1C1241.7 1070.87 1285.03 1140.04 1314.99 1219.61H1001.92C993.007 1206.32 983.337 1193.83 972.908 1182.13C901.282 1102.41 810.349 1062.55 700.108 1062.55C589.868 1062.55 499.557 1102.1 429.177 1181.2C371.19 1246.31 336.882 1337.79 326.252 1455.66H39.3422C51.9327 1270.88 111.186 1123.34 217.104 1013.03C337.31 888.467 498 826.184 699.174 826.184C902.84 826.184 1064.78 888.156 1184.98 1012.1Z" fill="#151F14"/>
<path d="M87.4607 275.395C117.417 354.962 160.752 424.13 217.465 482.901C337.671 606.844 499.607 668.816 703.273 668.816C904.447 668.816 1065.14 606.533 1185.34 481.967C1291.26 371.659 1350.51 224.118 1363.1 39.3421H1076.19C1065.57 157.208 1031.26 248.694 973.27 313.803C902.89 392.902 812.58 432.452 702.339 432.452C592.098 432.452 501.164 392.591 429.539 312.868C419.11 301.169 409.44 288.678 400.529 275.395H87.4607Z" fill="#151F14"/>
<path d="M1184.98 1012.1C1241.7 1070.87 1285.03 1140.04 1314.99 1219.61H1001.92C993.007 1206.32 983.337 1193.83 972.908 1182.13C901.282 1102.41 810.349 1062.55 700.108 1062.55C589.868 1062.55 499.557 1102.1 429.177 1181.2C371.19 1246.31 336.882 1337.79 326.252 1455.66H39.3422C51.9327 1270.88 111.186 1123.34 217.104 1013.03C337.31 888.467 498 826.184 699.174 826.184C902.84 826.184 1064.78 888.156 1184.98 1012.1Z" stroke="#151F14" stroke-width="78.6829" stroke-linejoin="round"/>
<path d="M87.4607 275.395C117.417 354.962 160.752 424.13 217.465 482.901C337.671 606.844 499.607 668.816 703.273 668.816C904.447 668.816 1065.14 606.533 1185.34 481.967C1291.26 371.659 1350.51 224.118 1363.1 39.3421H1076.19C1065.57 157.208 1031.26 248.694 973.27 313.803C902.89 392.902 812.58 432.452 702.339 432.452C592.098 432.452 501.164 392.591 429.539 312.868C419.11 301.169 409.44 288.678 400.529 275.395H87.4607Z" stroke="#151F14" stroke-width="78.6829" stroke-linejoin="round"/>
</svg>
