<svg width="95" height="21" viewBox="0 0 95 21" fill="none" xmlns="http://www.w3.org/2000/svg">
<path d="M0.543229 20.0978V0.543184H15.4291V3.8512H4.4915V8.7018H15.4291V12.0313L4.4915 11.9965V16.8031H15.4291V20.0978H0.543229Z" fill="#081F24"/>
<path d="M17.5887 20.0978V0.543183H21.4302L29.4335 13.6018V0.543183H33.1017V20.0978H29.14L21.2568 7.34595V20.0978H17.5887Z" fill="#081F24"/>
<path d="M42.2639 20.0978L35.2744 0.543183H39.5561L44.5048 15.0157L49.2934 0.543183H53.4818L46.479 20.0978H42.2639Z" fill="#081F24"/>
<path d="M55.6545 10.4366C55.6545 8.51036 55.9426 6.8937 56.5188 5.58662C56.9487 4.62351 57.5335 3.75929 58.273 2.99396C59.0211 2.22863 59.8381 1.66108 60.7238 1.29131C61.9019 0.79256 63.2605 0.543183 64.7998 0.543183C67.586 0.543183 69.8131 1.4074 71.4814 3.13585C73.1583 4.86429 73.9967 7.26777 73.9967 10.3463C73.9967 13.399 73.1668 15.7896 71.5072 17.518C69.8475 19.2379 67.6289 20.0978 64.8514 20.0978C62.0395 20.0978 59.8037 19.2422 58.144 17.5309C56.4844 15.8111 55.6545 13.4463 55.6545 10.4366ZM59.5887 10.3076C59.5887 12.4488 60.0831 14.0741 61.072 15.1833C62.061 16.284 63.3164 16.8344 64.8385 16.8344C66.3606 16.8344 67.6074 16.2883 68.5792 15.1962C69.5595 14.0955 70.0496 12.4488 70.0496 10.256C70.0496 8.089 69.5724 6.47234 68.6179 5.40604C67.6719 4.33974 66.4122 3.80659 64.8385 3.80659C63.2648 3.80659 61.9965 4.34834 61.0333 5.43184C60.0702 6.50674 59.5887 8.13199 59.5887 10.3076Z" fill="#081F24"/>
<path d="M83.3323 20.0978V11.8678L76.1694 0.543184H80.7979L85.3998 8.27966L89.9083 0.543184H94.4568L87.2672 11.8945V20.0978H83.3323Z" fill="#081F24"/>
<path d="M0.543229 20.0978V0.543184H15.4291V3.8512H4.4915V8.7018H15.4291V12.0313L4.4915 11.9965V16.8031H15.4291V20.0978H0.543229Z" stroke="#081F24" stroke-width="1.08292" stroke-linejoin="round"/>
<path d="M17.5887 20.0978V0.543183H21.4302L29.4335 13.6018V0.543183H33.1017V20.0978H29.14L21.2568 7.34595V20.0978H17.5887Z" stroke="#081F24" stroke-width="1.08292" stroke-linejoin="round"/>
<path d="M42.2639 20.0978L35.2744 0.543183H39.5561L44.5048 15.0157L49.2934 0.543183H53.4818L46.479 20.0978H42.2639Z" stroke="#081F24" stroke-width="1.08292" stroke-linejoin="round"/>
<path d="M55.6545 10.4366C55.6545 8.51036 55.9426 6.8937 56.5188 5.58662C56.9487 4.62351 57.5335 3.75929 58.273 2.99396C59.0211 2.22863 59.8381 1.66108 60.7238 1.29131C61.9019 0.79256 63.2605 0.543183 64.7998 0.543183C67.586 0.543183 69.8131 1.4074 71.4814 3.13585C73.1583 4.86429 73.9967 7.26777 73.9967 10.3463C73.9967 13.399 73.1668 15.7896 71.5072 17.518C69.8475 19.2379 67.6289 20.0978 64.8514 20.0978C62.0395 20.0978 59.8037 19.2422 58.144 17.5309C56.4844 15.8111 55.6545 13.4463 55.6545 10.4366ZM59.5887 10.3076C59.5887 12.4488 60.0831 14.0741 61.072 15.1833C62.061 16.284 63.3164 16.8344 64.8385 16.8344C66.3606 16.8344 67.6074 16.2883 68.5792 15.1962C69.5595 14.0955 70.0496 12.4488 70.0496 10.256C70.0496 8.089 69.5724 6.47234 68.6179 5.40604C67.6719 4.33974 66.4122 3.80659 64.8385 3.80659C63.2648 3.80659 61.9965 4.34834 61.0333 5.43184C60.0702 6.50674 59.5887 8.13199 59.5887 10.3076Z" stroke="#081F24" stroke-width="1.08292" stroke-linejoin="round"/>
<path d="M83.3323 20.0978V11.8678L76.1694 0.543184H80.7979L85.3998 8.27966L89.9083 0.543184H94.4568L87.2672 11.8945V20.0978H83.3323Z" stroke="#081F24" stroke-width="1.08292" stroke-linejoin="round"/>
</svg>
