<svg width="133" height="133" viewBox="0 0 133 133" fill="none" xmlns="http://www.w3.org/2000/svg">
<path fill-rule="evenodd" clip-rule="evenodd" d="M66.0651 46.9412L69.2949 44.136L74.7579 39.3914V7.54978C74.7579 3.38062 70.8654 0 66.0651 0C61.2647 0 57.3723 3.38062 57.3723 7.54978V39.3914L62.8352 44.136L66.0651 46.9412ZM66.0651 86.059L62.8352 88.8641L57.3723 93.6087V125.45C57.3723 129.62 61.2647 133 66.0651 133C70.8654 133 74.7579 129.62 74.7579 125.45V93.6087L69.2949 88.8641L66.0651 86.059ZM93.6087 57.3734H125.45C129.62 57.3734 133 61.2659 133 66.0662C133 70.8666 129.62 74.759 125.45 74.759H93.6087L88.8624 69.2961L86.059 66.0662L88.8624 62.8364L93.6087 57.3734ZM46.9412 66.0662L44.136 62.8364L39.3914 57.3734H7.54978C3.38062 57.3734 0 61.2659 0 66.0662C0 70.8666 3.38062 74.759 7.54978 74.759H39.3914L44.136 69.2961L46.9412 66.0662ZM51.8439 70.4127L62.5884 81.1571L59.7655 83.9799L30.355 113.39C28.871 114.874 26.9277 115.615 24.9828 115.615C24.0103 115.615 23.0395 115.43 22.1244 115.058C21.2094 114.688 20.3534 114.131 19.6105 113.39C16.6441 110.424 16.6441 105.612 19.6105 102.646L49.021 73.2356L51.8439 70.4127ZM70.4116 51.844L81.156 62.5884L83.9789 59.7655L113.389 30.3553C116.356 27.3889 116.356 22.579 113.389 19.6109C112.647 18.8698 111.791 18.3126 110.875 17.9429C109.962 17.5715 108.99 17.3857 108.017 17.3857C106.072 17.3857 104.129 18.1269 102.645 19.6109L73.2344 49.0212L70.4116 51.844ZM64.7618 54.2017L75.3205 64.7606L82.7866 72.2268L111.689 101.129C114.605 104.046 114.605 108.773 111.689 111.688C110.232 113.147 108.321 113.875 106.409 113.875C104.5 113.875 102.588 113.147 101.13 111.688L72.2279 82.7857L64.7618 75.3195L54.2031 64.7606L46.737 57.2944L17.835 28.3919C14.9182 25.4751 14.9182 20.7481 17.835 17.833C18.1983 17.468 18.5915 17.1494 19.0063 16.8757C19.8342 16.3298 20.7467 15.9648 21.6875 15.7823C22.1587 15.691 22.6365 15.6462 23.1143 15.6462C25.024 15.6462 26.9353 16.3746 28.3937 17.833L57.2957 46.7355L64.7618 54.2017Z" fill="url(#paint0_linear_139_12428)"/>
<defs>
<linearGradient id="paint0_linear_139_12428" x1="-2.16566" y1="82.9715" x2="137.573" y2="82.9715" gradientUnits="userSpaceOnUse">
<stop stop-color="#68D4ED"/>
<stop offset="0.442708" stop-color="#95F270"/>
<stop offset="1" stop-color="#E5E564"/>
</linearGradient>
</defs>
</svg>
