<svg width="279" height="56" viewBox="0 0 279 56" fill="none" xmlns="http://www.w3.org/2000/svg">
<path d="M5.06458 50.6455V5.06454H38.8616V12.7754H14.2678V22.8803H37.1515V30.56H14.2678V42.9657H39.7322V50.6455H5.06458Z" fill="#21312A" stroke="#21312A" stroke-width="2.53227" stroke-linejoin="round"/>
<path d="M44.7968 50.6455V5.06454H53.7513L72.4065 35.5036V5.06454H80.9568V50.6455H71.7224L53.3471 20.9215V50.6455H44.7968Z" fill="#21312A" stroke="#21312A" stroke-width="2.53227" stroke-linejoin="round"/>
<path d="M102.313 50.6455L86.0212 5.06454H96.0018L107.537 38.7994L118.699 5.06454H128.462L112.139 50.6455H102.313Z" fill="#21312A" stroke="#21312A" stroke-width="2.53227" stroke-linejoin="round"/>
<path d="M133.526 28.1256C133.526 23.6357 134.198 19.8673 135.541 16.8206C136.543 14.5756 137.906 12.5611 139.63 10.7772C141.374 8.99324 143.278 7.67031 145.343 6.80841C148.089 5.64583 151.256 5.06454 154.844 5.06454C161.338 5.06454 166.53 7.079 170.418 11.1079C174.327 15.1368 176.281 20.7392 176.281 27.9151C176.281 35.0309 174.347 40.6032 170.478 44.6321C166.61 48.641 161.438 50.6455 154.964 50.6455C148.409 50.6455 143.198 48.651 139.329 44.6622C135.461 40.6533 133.526 35.1411 133.526 28.1256ZM142.697 27.8249C142.697 32.816 143.849 36.6044 146.154 39.1901C148.46 41.7558 151.386 43.0386 154.934 43.0386C158.482 43.0386 161.388 41.7658 163.653 39.2202C165.938 36.6545 167.081 32.816 167.081 27.7047C167.081 22.6535 165.968 18.8851 163.743 16.3996C161.539 13.9141 158.602 12.6714 154.934 12.6714C151.266 12.6714 148.309 13.9342 146.064 16.4598C143.819 18.9653 142.697 22.7537 142.697 27.8249Z" fill="#21312A" stroke="#21312A" stroke-width="2.53227" stroke-linejoin="round"/>
<path d="M198.042 50.6455V31.4617L181.346 5.06454H192.135L202.861 23.0979L213.37 5.06454H223.973L207.214 31.5239V50.6455H198.042Z" fill="#21312A" stroke="#21312A" stroke-width="2.53227" stroke-linejoin="round"/>
<path d="M265.907 36.3705C267.732 38.2619 269.127 40.4879 270.091 43.0486H260.016C259.729 42.6211 259.418 42.2191 259.082 41.8426C256.777 39.2769 253.85 37.9941 250.303 37.9941C246.755 37.9941 243.848 39.2669 241.583 41.8125C239.717 43.9079 238.613 46.8522 238.271 50.6454H229.037C229.443 44.6989 231.349 39.9506 234.758 36.4006C238.627 32.3917 243.798 30.3873 250.273 30.3873C256.827 30.3873 262.039 32.3817 265.907 36.3705Z" fill="url(#paint0_linear_1023_1496)"/>
<path d="M230.586 12.6613C231.55 15.222 232.945 17.4481 234.77 19.3395C238.638 23.3283 243.85 25.3227 250.405 25.3227C256.879 25.3227 262.05 23.3183 265.919 19.3094C269.328 15.7594 271.235 11.0111 271.64 5.06453H262.406C262.064 8.85777 260.96 11.8021 259.094 13.8974C256.829 16.4431 253.922 17.7159 250.374 17.7159C246.827 17.7159 243.9 16.433 241.595 13.8674C241.259 13.4908 240.948 13.0888 240.661 12.6613H230.586Z" fill="url(#paint1_linear_1023_1496)"/>
<path d="M265.907 36.3705C267.732 38.2619 269.127 40.4879 270.091 43.0486H260.016C259.729 42.6211 259.418 42.2191 259.082 41.8426C256.777 39.2769 253.85 37.9941 250.303 37.9941C246.755 37.9941 243.848 39.2669 241.583 41.8125C239.717 43.9079 238.613 46.8522 238.271 50.6454H229.037C229.443 44.6989 231.349 39.9506 234.758 36.4006C238.627 32.3917 243.798 30.3873 250.273 30.3873C256.827 30.3873 262.039 32.3817 265.907 36.3705Z" stroke="url(#paint2_linear_1023_1496)" stroke-width="2.53227" stroke-linejoin="round"/>
<path d="M230.586 12.6613C231.55 15.222 232.945 17.4481 234.77 19.3395C238.638 23.3283 243.85 25.3227 250.405 25.3227C256.879 25.3227 262.05 23.3183 265.919 19.3094C269.328 15.7594 271.235 11.0111 271.64 5.06453H262.406C262.064 8.85777 260.96 11.8021 259.094 13.8974C256.829 16.4431 253.922 17.7159 250.374 17.7159C246.827 17.7159 243.9 16.433 241.595 13.8674C241.259 13.4908 240.948 13.0888 240.661 12.6613H230.586Z" stroke="url(#paint3_linear_1023_1496)" stroke-width="2.53227" stroke-linejoin="round"/>
<defs>
<linearGradient id="paint0_linear_1023_1496" x1="228.344" y1="33.5" x2="273.105" y2="33.5" gradientUnits="userSpaceOnUse">
<stop stop-color="#68D4ED"/>
<stop offset="0.442708" stop-color="#95F270"/>
<stop offset="1" stop-color="#E5E564"/>
</linearGradient>
<linearGradient id="paint1_linear_1023_1496" x1="228.344" y1="33.5" x2="273.105" y2="33.5" gradientUnits="userSpaceOnUse">
<stop stop-color="#68D4ED"/>
<stop offset="0.442708" stop-color="#95F270"/>
<stop offset="1" stop-color="#E5E564"/>
</linearGradient>
<linearGradient id="paint2_linear_1023_1496" x1="228.344" y1="33.5" x2="273.105" y2="33.5" gradientUnits="userSpaceOnUse">
<stop stop-color="#68D4ED"/>
<stop offset="0.442708" stop-color="#95F270"/>
<stop offset="1" stop-color="#E5E564"/>
</linearGradient>
<linearGradient id="paint3_linear_1023_1496" x1="228.344" y1="33.5" x2="273.105" y2="33.5" gradientUnits="userSpaceOnUse">
<stop stop-color="#68D4ED"/>
<stop offset="0.442708" stop-color="#95F270"/>
<stop offset="1" stop-color="#E5E564"/>
</linearGradient>
</defs>
</svg>
