<svg width="32" height="33" viewBox="0 0 32 33" fill="none" xmlns="http://www.w3.org/2000/svg">
<path fill-rule="evenodd" clip-rule="evenodd" d="M15.7405 32.8643C15.7405 28.6572 14.167 24.9802 11.0255 21.8387C7.88406 18.6972 4.20704 17.1237 0 17.1237V16.6103C4.20704 16.6103 7.88406 15.0368 11.0255 11.8898C14.1026 8.79649 15.6753 5.20526 15.7385 1.12131C15.7407 0.979538 15.8555 0.864258 15.9972 0.864258C16.139 0.864258 16.2538 0.97955 16.2559 1.12132C16.3189 5.22124 17.8916 8.81247 20.9689 11.8898C24.1104 15.0313 27.7874 16.6048 31.9945 16.6048V17.1182C27.7874 17.1182 24.1104 18.6917 20.9689 21.8332C17.8275 24.9802 16.254 28.6572 16.254 32.8643" fill="white"/>
</svg>
